<svg width="249" height="113" viewBox="0 0 249 113" fill="none" xmlns="http://www.w3.org/2000/svg">
<path d="M40.0345 11.6897H88.9655V109.103H40.0345V11.6897Z" fill="#FDBD40"/>
<path d="M57.8276 85.7241H71.1724V109.103H57.8276V85.7241Z" fill="#5A6470"/>
<path d="M0 54.5518H40.0345V105.207H0V54.5518Z" fill="#A7C6D3"/>
<path d="M4.44827 31.1724H31.1379V54.5517H4.44827V31.1724Z" fill="#CFDFE8"/>
<path d="M8.89655 17.5344H26.6897V31.1724H8.89655V17.5344Z" fill="#A7C6D3"/>
<path d="M15.569 3.89648H20.0172V17.5344H15.569V3.89648Z" fill="#5A6470"/>
<path d="M88.9655 54.5518H129V105.207H88.9655V54.5518Z" fill="#E9686A"/>
<path d="M124.552 54.5517H97.8621V17.5344L124.552 25.3275V54.5517Z" fill="#F98C96"/>
<path d="M104.534 29.2241H108.983V54.5517H104.534V29.2241Z" fill="#5A6470"/>
<path d="M113.431 29.2241H117.879V54.5517H113.431V29.2241Z" fill="#5A6470"/>
<path d="M6.67241 60.3965H33.3621V64.2931H6.67241V60.3965Z" fill="#5A6470"/>
<path d="M6.67241 68.1896H33.3621V72.0861H6.67241V68.1896Z" fill="#5A6470"/>
<path d="M6.67241 75.9827H33.3621V79.8792H6.67241V75.9827Z" fill="#5A6470"/>
<path d="M6.67241 83.7759H33.3621V87.6724H6.67241V83.7759Z" fill="#5A6470"/>
<path d="M51.1552 23.3793H60.0517V31.1724H51.1552V23.3793Z" fill="#5A6470"/>
<path d="M68.9483 23.3793H77.8448V31.1724H68.9483V23.3793Z" fill="#5A6470"/>
<path d="M51.1552 38.9655H60.0517V46.7586H51.1552V38.9655Z" fill="#5A6470"/>
<path d="M68.9483 38.9655H77.8448V46.7586H68.9483V38.9655Z" fill="#5A6470"/>
<path d="M51.1552 54.5516H60.0517V62.3447H51.1552V54.5516Z" fill="#5A6470"/>
<path d="M68.9483 54.5516H77.8448V62.3447H68.9483V54.5516Z" fill="#5A6470"/>
<path d="M51.1552 70.1379H60.0517V77.931H51.1552V70.1379Z" fill="#5A6470"/>
<path d="M68.9483 70.1379H77.8448V77.931H68.9483V70.1379Z" fill="#5A6470"/>
<path d="M102.31 93.5172H115.655V105.207H102.31V93.5172Z" fill="#5A6470"/>
<path d="M95.6379 60.3965H100.086V64.2931H95.6379V60.3965Z" fill="#5A6470"/>
<path d="M104.534 60.3965H113.431V64.2931H104.534V60.3965Z" fill="#5A6470"/>
<path d="M117.879 60.3965H122.328V64.2931H117.879V60.3965Z" fill="#5A6470"/>
<path d="M95.6379 68.1896H100.086V72.0861H95.6379V68.1896Z" fill="#5A6470"/>
<path d="M104.534 68.1896H113.431V72.0861H104.534V68.1896Z" fill="#5A6470"/>
<path d="M117.879 68.1896H122.328V72.0861H117.879V68.1896Z" fill="#5A6470"/>
<path d="M95.6379 75.9827H100.086V79.8792H95.6379V75.9827Z" fill="#5A6470"/>
<path d="M104.534 75.9827H113.431V79.8792H104.534V75.9827Z" fill="#5A6470"/>
<path d="M117.879 75.9827H122.328V79.8792H117.879V75.9827Z" fill="#5A6470"/>
<path d="M95.6379 83.7759H100.086V87.6724H95.6379V83.7759Z" fill="#5A6470"/>
<path d="M104.534 83.7759H113.431V87.6724H104.534V83.7759Z" fill="#5A6470"/>
<path d="M117.879 83.7759H122.328V87.6724H117.879V83.7759Z" fill="#5A6470"/>
<path d="M199.741 23.1475L207.641 31.0339L208.963 30.0552L201.064 22.1687L199.741 23.1475Z" fill="#D38405"/>
<path d="M210.341 23.1486L218.24 31.035L219.562 30.0563L211.663 22.1698L210.341 23.1486Z" fill="#D38405"/>
<path d="M220.94 23.1486L228.839 31.035L230.161 30.0563L222.262 22.1698L220.94 23.1486Z" fill="#D38405"/>
<path d="M231.54 23.1486L239.439 31.035L240.762 30.0563L232.862 22.1698L231.54 23.1486Z" fill="#D38405"/>
<path d="M197.56 57.0091L198.698 58.1459L207.872 51.3553L206.734 50.2185L197.56 57.0091Z" fill="#D38405"/>
<path d="M197.558 66.1199L198.696 67.2566L207.87 60.466L206.732 59.3293L197.558 66.1199Z" fill="#D38405"/>
<path d="M239.236 57.5211V60.4716C241.84 61.0798 243.601 63.448 242.683 65.9973C242.216 67.2784 241.012 68.3267 239.507 68.7279C236.075 69.6466 232.898 67.4468 232.898 64.6256H233.485C234.644 64.6256 235.668 65.1304 236.496 65.842C236.857 66.1526 237.369 66.3468 237.911 66.3468C239.025 66.3468 239.928 65.5703 239.928 64.6256C239.928 63.668 239.025 62.8915 237.911 62.8915H236.601V57.5211" fill="#F7C400"/>
<path d="M239.358 35.842H236.724V53.6601H239.358V35.842Z" fill="#7C8182"/>
<path d="M239.358 39.442H238.004V53.66H239.358V39.442Z" fill="#919A9B"/>
<path d="M235.394 31.4772H240.688V36.7255C240.688 37.2813 240.164 37.7318 239.518 37.7318H236.564C235.918 37.7318 235.394 37.2813 235.394 36.7255V31.4772Z" fill="#425965"/>
<path d="M237.488 36.7255V31.4772H235.394V36.7255C235.394 37.2813 235.918 37.7318 236.564 37.7318H238.658C238.012 37.7318 237.488 37.2813 237.488 36.7255Z" fill="#2F4149"/>
<path d="M249 23.2278V20.0249H192V23.2278H197.133V29.9775H192V33.1803H249V29.9775H243.371V23.2278H249ZM200.972 29.9775V23.2278H207.733V29.9775H200.972V29.9775ZM211.572 29.9775V23.2278H218.333V29.9775H211.572V29.9775ZM222.171 29.9775V23.2278H228.933V29.9775H222.171V29.9775ZM239.532 29.9775H232.771V23.2278H239.532V29.9775V29.9775Z" fill="#F49C00"/>
<path d="M198.791 51.2761H206.643V57.0884H198.791V51.2761ZM198.791 60.3881H206.643V66.2004H198.791V60.3881ZM198.791 29.9773H195.066V68.9753H198.791H206.642H210.368V51.2761" fill="#F49C00"/>
<path d="M203.24 33.1801H195.066V40.2071H203.24V33.1801Z" fill="#D38405"/>
<path d="M217.875 33.1858V46.6222C217.875 49.2008 215.447 51.2706 212.448 51.2706H198.791V33.1858H217.875Z" fill="#F7C400"/>
<path d="M217.875 33.186H198.791V38.2755H217.875V33.186Z" fill="#D6A403"/>
<path d="M214.579 37.139H206.685V43.9251H214.579V37.139Z" fill="#A0D9F2"/>
<path d="M214.579 44.6746H206.685C206.203 44.6746 205.813 44.3388 205.813 43.9246V37.1386C205.813 36.7244 206.203 36.3885 206.685 36.3885H214.579C215.061 36.3885 215.451 36.7244 215.451 37.1386V43.9246C215.451 44.3389 215.061 44.6746 214.579 44.6746ZM207.558 43.1747H213.707V37.8887H207.558V43.1747Z" fill="#D6A403"/>
<path d="M239.236 57.5211H236.724C235.419 57.5211 234.361 56.6113 234.361 55.4891V54.0769C234.361 52.9546 235.419 52.0449 236.724 52.0449H239.236C240.541 52.0449 241.6 52.9547 241.6 54.0769V55.4891C241.6 56.6113 240.541 57.5211 239.236 57.5211Z" fill="#425965"/>
<path d="M237.398 55.489V54.0768C237.398 53.031 238.318 52.1707 239.499 52.0581C239.413 52.0498 239.325 52.0448 239.236 52.0448H236.724C235.419 52.0448 234.361 52.9546 234.361 54.0768V55.489C234.361 56.6113 235.419 57.521 236.724 57.521H239.236C239.325 57.521 239.413 57.516 239.499 57.5077C238.318 57.3951 237.398 56.5346 237.398 55.489Z" fill="#2F4149"/>
<path d="M183.75 35V47C183.75 48.65 182.231 50 180.375 50H163.5C161.644 50 160.125 48.65 160.125 47V35C160.125 33.35 161.644 32 163.5 32H180.375C182.231 32 183.75 33.35 183.75 35Z" fill="#AAB2BD"/>
<path d="M166.875 38H177V44H166.875V38Z" fill="#CCD1D9"/>
<path d="M123 71V72.5C123 73.325 122.241 74 121.312 74H117.938C117.009 74 116.25 73.325 116.25 72.5V71V65V59V47H123V59V65V71Z" fill="#AAB2BD"/>
<path d="M123 65H139.875V71H123V65Z" fill="#CF9E76"/>
<path d="M123 59H139.875V65H123V59Z" fill="#CF9E76"/>
<path d="M99.375 65H116.25V71H99.375V65Z" fill="#CF9E76"/>
<path d="M99.375 59H116.25V65H99.375V59Z" fill="#CF9E76"/>
<path d="M175.312 20L180.375 32H163.5L168.562 20H175.312Z" fill="#DFB28B"/>
<path d="M200.625 35V47H183.75V35H197.25H200.625Z" fill="#DFB28B"/>
<path d="M170.25 99.5C166.521 99.5 163.5 102.185 163.5 105.5V83.57L169.912 79.73C170.554 79.91 171.229 80 171.938 80C172.545 80 173.152 79.925 173.709 79.79L180.375 84.635V98.255C179.852 98.09 179.278 98 178.688 98C176.662 98 174.924 99.065 174.114 100.595C173.018 99.905 171.684 99.5 170.25 99.5V99.5Z" fill="#DFB28B"/>
<path d="M178.637 73.235C178.215 70.28 175.38 68 171.938 68C169.119 68 166.689 69.545 165.694 71.735L163.5 73.04V50H180.375V74.615L178.637 73.235Z" fill="#DFB28B"/>
<path d="M200.625 92V101C200.625 105.965 196.086 110 190.5 110H183.75H183.024C181.556 110 180.375 108.95 180.375 107.645C180.375 107.225 180.51 106.805 180.746 106.445L183.733 102.02L190.5 92H200.625Z" fill="#AAB2BD"/>
<path d="M178.637 73.235L180.375 74.615L200.625 90.5V92H190.5L180.375 84.635L173.709 79.79C176.578 79.1 178.687 76.775 178.687 74C178.687 73.745 178.671 73.49 178.637 73.235V73.235Z" fill="#CCD1D9"/>
<path d="M165.187 74C165.187 76.685 167.179 78.965 169.912 79.73L163.5 83.57L150 91.685V86C150 84.485 149.578 83.06 148.836 81.815L163.5 73.055V73.04L165.694 71.735C165.373 72.425 165.187 73.19 165.187 74V74Z" fill="#CCD1D9"/>
<path d="M178.637 73.235C178.671 73.49 178.688 73.745 178.688 74C178.688 76.775 176.578 79.1 173.709 79.79C173.152 79.925 172.545 80 171.938 80C171.229 80 170.554 79.91 169.912 79.73C167.179 78.965 165.188 76.685 165.188 74C165.188 73.19 165.373 72.425 165.694 71.735C166.689 69.545 169.119 68 171.938 68C175.38 68 178.215 70.28 178.637 73.235Z" fill="#FCD770"/>
<path d="M150 91.685V98H143.25V86C143.25 84.35 141.731 83 139.875 83H131.438C130.509 83 129.75 83.675 129.75 84.5V98H119.625H99.375V92C99.375 88.685 102.396 86 106.125 86H123V83C123 79.685 126.021 77 129.75 77H139.875C143.756 77 147.148 78.95 148.836 81.815C149.578 83.06 150 84.485 150 86V91.685Z" fill="#FF826E"/>
<path d="M143.25 86V98H129.75V84.5C129.75 83.675 130.509 83 131.438 83H139.875C141.731 83 143.25 84.35 143.25 86Z" fill="#69D6F4"/>
<path d="M143.25 98C146.979 98 150 100.685 150 104C150 105.65 149.241 107.15 148.026 108.245C146.794 109.325 145.106 110 143.25 110H141.562H119.625C115.896 110 112.875 107.315 112.875 104C112.875 102.35 113.634 100.85 114.849 99.755C116.081 98.675 117.769 98 119.625 98H129.75H143.25Z" fill="#CCD1D9"/>
<path d="M139.875 107C141.739 107 143.25 105.657 143.25 104C143.25 102.343 141.739 101 139.875 101C138.011 101 136.5 102.343 136.5 104C136.5 105.657 138.011 107 139.875 107Z" fill="#969FAA"/>
<path d="M123 107C124.864 107 126.375 105.657 126.375 104C126.375 102.343 124.864 101 123 101C121.136 101 119.625 102.343 119.625 104C119.625 105.657 121.136 107 123 107Z" fill="#969FAA"/>
<path d="M180.375 98.255C182.164 98.825 183.514 100.265 183.716 102.005L183.733 102.02L180.746 106.445C180.51 106.805 180.375 107.225 180.375 107.645C180.375 108.95 181.556 110 183.024 110H165.795C164.378 108.905 163.5 107.3 163.5 105.5C163.5 102.185 166.521 99.5 170.25 99.5C171.684 99.5 173.017 99.905 174.114 100.595C174.924 99.065 176.662 98 178.687 98C179.278 98 179.852 98.09 180.375 98.255V98.255Z" fill="#B4DD7F"/>
<path d="M128.062 104C128.062 101.519 125.791 99.5 123 99.5C120.209 99.5 117.938 101.519 117.938 104C117.938 106.481 120.209 108.5 123 108.5C125.791 108.5 128.062 106.481 128.062 104ZM123 105.5C122.069 105.5 121.312 104.826 121.312 104C121.312 103.174 122.069 102.5 123 102.5C123.931 102.5 124.688 103.174 124.688 104C124.688 104.826 123.931 105.5 123 105.5Z" fill="black"/>
<path d="M144.938 104C144.938 101.519 142.666 99.5 139.875 99.5C137.084 99.5 134.812 101.519 134.812 104C134.812 106.481 137.084 108.5 139.875 108.5C142.666 108.5 144.938 106.481 144.938 104ZM139.875 105.5C138.944 105.5 138.188 104.826 138.188 104C138.188 103.174 138.944 102.5 139.875 102.5C140.806 102.5 141.562 103.174 141.562 104C141.562 104.826 140.806 105.5 139.875 105.5Z" fill="black"/>
<path d="M165.188 45.5H178.688V36.5H165.188V45.5ZM168.562 39.5H175.312V42.5H168.562V39.5Z" fill="black"/>
<path d="M185.127 48.5H202.312V33.5H197.824L175.886 18.5H168.279L119.341 33.5H112.084L103.719 42.425C103.094 43.088 102.75 43.931 102.75 44.798C102.75 46.8395 104.618 48.5 106.916 48.5H114.562V57.5H97.6875V72.5H114.562C114.562 74.1545 116.076 75.5 117.938 75.5H121.312C123.174 75.5 124.688 74.1545 124.688 72.5H141.562V57.5H124.688V48.5H158.748C159.258 49.7705 160.383 50.771 161.812 51.224V72.251L149.323 79.7255C147.167 77.1665 143.739 75.5 139.875 75.5H129.75C125.098 75.5 121.312 78.8645 121.312 83V84.5H106.125C101.473 84.5 97.6875 87.8645 97.6875 92V99.5H112.919C111.847 100.757 111.188 102.305 111.188 104C111.188 108.135 114.973 111.5 119.625 111.5H141.562H143.25H183.018H183.75H190.5C197.012 111.5 202.312 106.79 202.312 101V92V90.5V89.8235L182.062 73.94V51.224C183.492 50.771 184.617 49.7705 185.127 48.5V48.5ZM171.938 66.5C169.168 66.5 166.727 67.709 165.188 69.5465V51.5H178.688V69.5465C177.148 67.709 174.707 66.5 171.938 66.5ZM141.562 96.5H131.438V84.5H139.875C140.806 84.5 141.562 85.1735 141.562 86V96.5ZM151.688 99.5V92.4815L161.812 86.396V105.5C161.812 106.544 162.062 107.562 162.523 108.5H149.958C151.028 107.243 151.688 105.695 151.688 104C151.688 102.305 151.028 100.757 149.956 99.5H151.688ZM165.188 105.5C165.188 103.019 167.459 101 170.25 101C171.286 101 172.288 101.284 173.147 101.821L174.791 102.848L175.647 101.232C176.21 100.163 177.376 99.5 178.688 99.5C180.252 99.5 181.573 100.447 181.946 101.756L179.305 105.669C178.902 106.268 178.688 106.952 178.688 107.651C178.688 107.943 178.731 108.227 178.802 108.5H166.517C165.68 107.676 165.188 106.619 165.188 105.5V105.5ZM183.968 98.762C183.443 98.1755 182.795 97.688 182.062 97.313V87.8L188.303 92.339L183.968 98.762ZM178.688 96.5C176.701 96.5 174.835 97.295 173.569 98.609C172.526 98.2085 171.403 98 170.25 98C168.343 98 166.602 98.5865 165.188 99.539V84.368L170.223 81.3425C170.777 81.4445 171.35 81.5 171.938 81.5C172.383 81.5 172.812 81.443 173.239 81.383L178.688 85.346V96.5ZM171.938 78.5C169.146 78.5 166.875 76.481 166.875 74C166.875 71.519 169.146 69.5 171.938 69.5C174.729 69.5 177 71.519 177 74C177 76.481 174.729 78.5 171.938 78.5ZM182.062 47C182.062 47.8265 181.306 48.5 180.375 48.5H163.5C162.569 48.5 161.812 47.8265 161.812 47V35C161.812 34.1735 162.569 33.5 163.5 33.5H180.375C181.306 33.5 182.062 34.1735 182.062 35V47ZM169.732 21.5H174.143L177.94 30.5H165.935L169.732 21.5ZM198.938 45.5H185.438V36.5H198.938V45.5ZM185.127 33.5C184.565 32.0975 183.25 31.019 181.609 30.6515L178.968 24.392L192.289 33.5H185.127ZM165.724 22.457L162.268 30.65C160.626 31.019 159.313 32.096 158.75 33.4985H129.696L165.724 22.457ZM134.812 37.5005L141.562 45.5H128.062L134.812 37.5005ZM124.688 44.4995L117.938 36.5H131.438L124.688 44.4995ZM138.188 36.5H151.688L144.938 44.4995L138.188 36.5ZM155.906 36.5H158.438V45.5H148.312L155.906 36.5ZM106.125 44.798C106.125 44.6345 106.189 44.4755 106.309 44.348L113.666 36.5H113.719L121.312 45.5H106.916C106.479 45.5 106.125 45.185 106.125 44.798V44.798ZM114.562 60.5V63.5H101.062V60.5H114.562ZM101.062 69.5V66.5H114.562V69.5H101.062ZM124.688 69.5V66.5H138.188V69.5H124.688ZM138.188 60.5V63.5H124.688V60.5H138.188ZM121.312 72.5H117.938V48.5H121.312V72.5ZM163.591 74.8025C163.839 76.8395 164.992 78.6185 166.703 79.835L151.688 88.859V86C151.688 84.7235 151.418 83.504 150.945 82.37L163.591 74.8025ZM101.062 92C101.062 89.519 103.334 87.5 106.125 87.5H124.688V83C124.688 80.519 126.959 78.5 129.75 78.5H139.875C144.527 78.5 148.312 81.8645 148.312 86V96.5H144.938V86C144.938 83.519 142.666 81.5 139.875 81.5H131.438C129.576 81.5 128.062 82.8455 128.062 84.5V96.5H119.625H101.062V92ZM141.562 108.5H139.875H123H119.625C116.834 108.5 114.562 106.481 114.562 104C114.562 101.519 116.834 99.5 119.625 99.5H123H139.875H143.25C146.041 99.5 148.312 101.519 148.312 104C148.312 106.481 146.041 108.5 143.25 108.5H141.562ZM198.938 101C198.938 105.135 195.152 108.5 190.5 108.5H183.75H183.018C182.491 108.5 182.062 108.119 182.062 107.651C182.062 107.498 182.11 107.347 182.199 107.215L191.455 93.5H198.938V101ZM191.102 90.5L176.808 80.1035C178.277 79.1735 179.374 77.8325 179.936 76.274L198.075 90.5H191.102Z" fill="black"/>
<path d="M104.438 90.5H107.812V93.5H104.438V90.5Z" fill="black"/>
<path d="M111.188 90.5H114.562V93.5H111.188V90.5Z" fill="black"/>
<path d="M117.938 90.5H121.312V93.5H117.938V90.5Z" fill="black"/>
</svg>
