<svg width="205" height="175" viewBox="0 0 205 175" fill="none" xmlns="http://www.w3.org/2000/svg">
<g clip-path="url(#clip0)">
<path d="M66.3774 137H58.5378C52.1971 137 47.0382 131.841 47.0382 125.501V122.848C44.3425 121.987 41.7235 120.9 39.2074 119.598L37.3278 121.477C32.7754 126.035 25.4832 125.902 21.0631 121.476L15.5222 115.935C11.0943 111.512 10.9669 104.222 15.5237 99.6705L17.4018 97.7923C16.0997 95.2762 15.0128 92.6576 14.1513 89.9615H11.4993C5.15886 89.9615 0 84.8028 0 78.4622V70.6222C0 64.2816 5.15886 59.123 11.4995 59.123H14.1516C15.013 56.427 16.0999 53.8082 17.402 51.2921L15.5225 49.4127C10.9684 44.8636 11.0941 37.5731 15.5239 33.1481L21.0653 27.6069C25.4957 23.1705 32.7862 23.0597 37.3297 27.6084L39.2076 29.4863C41.7237 28.1844 44.3428 27.0973 47.0385 26.2358V23.5838C47.0385 17.2431 52.1971 12.0845 58.538 12.0845H66.3777C72.7184 12.0845 77.877 17.2431 77.877 23.5838V26.236C80.5727 27.0973 83.1917 28.1844 85.7079 29.4865L87.5875 27.6069C92.1398 23.049 99.432 23.1827 103.852 27.6086L109.393 33.1493C113.821 37.5723 113.948 44.8621 109.392 49.4139L107.513 51.2921C108.816 53.8082 109.902 56.4268 110.764 59.123H113.416C119.757 59.123 124.915 64.2816 124.915 70.6222V78.4622C124.915 84.8028 119.757 89.9615 113.416 89.9615H110.764C109.902 92.6574 108.816 95.2762 107.513 97.7923L109.393 99.6719C113.947 104.221 113.821 111.512 109.392 115.937L103.85 121.478C99.4198 125.914 92.1293 126.025 87.5857 121.476L85.7079 119.598C83.1917 120.9 80.5727 121.987 77.877 122.849V125.501C77.877 131.841 72.7184 137 66.3774 137ZM40.4309 111.912C43.9263 113.979 47.6884 115.541 51.6125 116.554C53.2286 116.971 54.3577 118.428 54.3577 120.097V125.501C54.3577 127.805 56.2332 129.681 58.538 129.681H66.3777C68.6825 129.681 70.558 127.805 70.558 125.501V120.097C70.558 118.428 71.6871 116.971 73.3032 116.554C77.2273 115.541 80.9894 113.979 84.4848 111.912C85.923 111.061 87.7541 111.293 88.9357 112.474L92.7631 116.302C94.4134 117.954 97.0635 117.916 98.6732 116.304L104.218 110.759C105.824 109.155 105.878 106.505 104.22 104.849L100.39 101.02C99.209 99.8383 98.9777 98.007 99.8279 96.569C101.895 93.0738 103.457 89.3117 104.469 85.3874C104.887 83.7713 106.344 82.6424 108.013 82.6424H113.416C115.721 82.6424 117.596 80.7672 117.596 78.4624V70.6225C117.596 68.3177 115.721 66.4425 113.416 66.4425H108.013C106.344 66.4425 104.887 65.3133 104.469 63.6975C103.457 59.7731 101.895 56.011 99.8279 52.5158C98.9777 51.0779 99.209 49.2466 100.39 48.0653L104.218 44.2375C105.873 42.5848 105.829 39.9353 104.22 38.3272L98.6752 32.7829C97.0681 31.1736 94.4175 31.1265 92.7649 32.7814L88.9359 36.6106C87.7546 37.7922 85.9228 38.0235 84.4851 37.173C80.9896 35.1058 77.2275 33.5441 73.3034 32.5313C71.6873 32.1144 70.5582 30.6569 70.5582 28.9878V23.5838C70.5582 21.2789 68.6828 19.4037 66.3779 19.4037H58.5383C56.2334 19.4037 54.358 21.2789 54.358 23.5838V28.9873C54.358 30.6564 53.2289 32.1139 51.6128 32.5308C47.6887 33.5436 43.9266 35.1053 40.4311 37.1725C38.9927 38.0227 37.1616 37.7914 35.9803 36.6101L32.1528 32.7824C30.5026 31.1302 27.8522 31.1685 26.2427 32.7807L20.6979 38.3253C19.0921 39.9292 19.0384 42.5795 20.6964 44.2356L24.5256 48.0648C25.707 49.2461 25.9383 51.0774 25.088 52.5154C23.0208 56.0106 21.4594 59.7727 20.4466 63.697C20.0294 65.3131 18.5719 66.442 16.9031 66.442H11.4995C9.19471 66.4422 7.31927 68.3174 7.31927 70.6222V78.4622C7.31927 80.767 9.19471 82.6422 11.4995 82.6422H16.9029C18.5719 82.6422 20.0292 83.7713 20.4464 85.3872C21.4591 89.3115 23.0208 93.0736 25.0878 96.5688C25.938 98.0068 25.7067 99.8381 24.5254 101.019L20.6977 104.847C19.043 106.5 19.0862 109.149 20.6962 110.757L26.2405 116.302C27.8476 117.911 30.4982 117.958 32.1508 116.303L35.9798 112.474C36.8503 111.604 38.6613 110.865 40.4309 111.912Z" fill="#E8E8E8"/>
<path d="M62.4577 101.721C47.4711 101.721 35.2789 89.5286 35.2789 74.5422C35.2789 59.5558 47.4711 47.3633 62.4577 47.3633C77.4444 47.3633 89.6366 59.5558 89.6366 74.5422C89.6366 89.5286 77.4444 101.721 62.4577 101.721ZM62.4577 54.6826C51.5069 54.6826 42.5981 63.5916 42.5981 74.5422C42.5981 85.4928 51.5071 94.4018 62.4577 94.4018C73.4083 94.4018 82.3173 85.4928 82.3173 74.5422C82.3173 63.5916 73.4086 54.6826 62.4577 54.6826Z" fill="#E8E8E8"/>
</g>
<g clip-path="url(#clip1)">
<path d="M161.408 169.834L155.569 170.364C150.848 170.792 146.657 167.3 146.229 162.578L146.049 160.603C143.984 160.143 141.96 159.511 139.998 158.711L138.725 160.238C135.643 163.94 130.204 164.333 126.613 161.336L122.112 157.585C118.516 154.59 117.929 149.17 121.014 145.473L122.286 143.947C121.146 142.161 120.16 140.285 119.336 138.335L117.361 138.514C112.639 138.943 108.449 135.45 108.02 130.728L107.49 124.89C107.062 120.168 110.555 115.978 115.277 115.549L117.252 115.37C117.711 113.304 118.343 111.281 119.143 109.319L117.616 108.046C113.917 104.967 113.518 99.5289 116.518 95.9342L120.27 91.4332C123.269 87.83 128.691 87.2547 132.382 90.3349L133.907 91.6064C135.693 90.4669 137.57 89.4803 139.519 88.6565L139.34 86.6816C138.911 81.9598 142.404 77.7695 147.126 77.3409L152.964 76.811C157.686 76.3824 161.876 79.8753 162.305 84.5971L162.484 86.5722C164.55 87.0313 166.574 87.6639 168.535 88.4634L169.808 86.9367C172.89 83.2347 178.329 82.8414 181.92 85.8386L186.421 89.5901C190.017 92.5846 190.605 98.0045 187.519 101.702L186.248 103.228C187.387 105.013 188.374 106.89 189.197 108.84L191.172 108.66C195.894 108.232 200.085 111.725 200.513 116.446L201.043 122.285C201.472 127.007 197.979 131.197 193.257 131.625L191.282 131.805C190.823 133.87 190.19 135.894 189.391 137.856L190.917 139.129C194.616 142.208 195.016 147.646 192.016 151.241L188.264 155.742C185.264 159.345 179.843 159.92 176.152 156.84L174.626 155.569C172.841 156.708 170.964 157.695 169.015 158.518L169.194 160.494C169.622 165.215 166.13 169.405 161.408 169.834ZM140.39 152.905C143.132 154.208 146.04 155.117 149.03 155.606C150.262 155.807 151.201 156.816 151.314 158.059L151.679 162.083C151.835 163.799 153.359 165.069 155.075 164.913L160.913 164.383C162.629 164.227 163.899 162.704 163.743 160.988L163.378 156.964C163.265 155.721 164.008 154.559 165.183 154.14C168.037 153.12 170.733 151.703 173.196 149.927C174.21 149.197 175.589 149.245 176.549 150.045L179.658 152.637C180.998 153.756 182.969 153.548 184.059 152.239L187.813 147.735C188.901 146.432 188.761 144.454 187.415 143.333L184.304 140.741C183.345 139.941 183.049 138.593 183.585 137.464C184.888 134.722 185.796 131.815 186.285 128.824C186.487 127.592 187.496 126.653 188.739 126.54L192.762 126.175C194.479 126.019 195.749 124.496 195.593 122.78L195.063 116.941C194.907 115.225 193.384 113.955 191.667 114.111L187.644 114.476C186.401 114.589 185.239 113.847 184.819 112.672C183.8 109.818 182.382 107.122 180.607 104.659C179.877 103.645 179.925 102.266 180.725 101.306L183.317 98.1971C184.437 96.8545 184.226 94.8844 182.918 93.7957L178.415 90.0417C177.109 88.9519 175.132 89.096 174.013 90.4401L171.421 93.5504C170.621 94.5102 169.272 94.8063 168.144 94.2701C165.402 92.9669 162.494 92.0583 159.504 91.5693C158.272 91.3681 157.333 90.359 157.22 89.1161L156.855 85.0918C156.699 83.3754 155.175 82.1057 153.459 82.2615L147.621 82.7915C145.905 82.9473 144.635 84.4705 144.79 86.1868L145.156 90.2108C145.269 91.4537 144.526 92.6154 143.351 93.0352C140.497 94.0546 137.801 95.4719 135.338 97.2475C134.324 97.9779 132.945 97.9295 131.985 97.1296L128.876 94.5379C127.536 93.419 125.565 93.6267 124.475 94.9361L120.721 99.4399C119.633 100.743 119.772 102.72 121.119 103.841L124.23 106.434C125.189 107.234 125.485 108.582 124.949 109.71C123.646 112.453 122.737 115.36 122.249 118.351C122.047 119.583 121.038 120.522 119.795 120.635L115.771 121C114.055 121.156 112.785 122.679 112.941 124.395L113.471 130.234C113.627 131.95 115.15 133.22 116.866 133.064L120.89 132.699C122.133 132.586 123.295 133.328 123.715 134.503C124.734 137.357 126.151 140.053 127.927 142.516C128.657 143.53 128.609 144.909 127.809 145.869L125.217 148.978C124.097 150.32 124.308 152.291 125.615 153.379L130.119 157.133C131.425 158.223 133.402 158.079 134.52 156.735L137.113 153.624C137.702 152.918 139.001 152.245 140.39 152.905Z" fill="#E8E8E8"/>
<path d="M156.104 143.827C144.944 144.84 135.04 136.585 134.027 125.425C133.014 114.264 141.269 104.361 152.43 103.348C163.59 102.335 173.493 110.59 174.507 121.75C175.52 132.91 167.264 142.814 156.104 143.827ZM152.924 108.798C144.769 109.538 138.737 116.775 139.478 124.93C140.218 133.085 147.454 139.117 155.609 138.377C163.764 137.636 169.796 130.4 169.056 122.245C168.316 114.09 161.079 108.058 152.924 108.798Z" fill="#E8E8E8"/>
</g>
<g clip-path="url(#clip2)">
<path d="M158.918 74.1383L154.821 75.2362C151.507 76.1241 148.088 74.1505 147.2 70.8365L146.829 69.4503C145.299 69.3777 143.778 69.1763 142.281 68.8481L141.561 70.0937C139.821 73.1134 135.991 74.0648 133.061 72.3706L129.389 70.2507C126.455 68.5591 125.368 64.767 127.112 61.7498L127.83 60.5052C126.797 59.3725 125.863 58.1561 125.035 56.8676L123.649 57.239C120.335 58.127 116.916 56.1533 116.028 52.8393L114.93 48.7418C114.042 45.4279 116.016 42.0093 119.33 41.1213L120.716 40.7499C120.789 39.2203 120.99 37.6993 121.318 36.2019L120.073 35.4829C117.056 33.7431 116.1 29.9151 117.796 26.9821L119.916 23.3099C121.61 20.3708 125.405 19.2919 128.417 21.033L129.661 21.7515C130.794 20.7187 132.011 19.7837 133.299 18.956L132.927 17.5699C132.039 14.2559 134.013 10.8374 137.327 9.94938L141.425 8.85149C144.739 7.96352 148.157 9.93723 149.045 13.2512L149.417 14.6374C150.946 14.71 152.467 14.9114 153.965 15.2396L154.684 13.994C156.425 10.9743 160.255 10.0229 163.185 11.7171L166.856 13.837C169.79 15.5286 170.878 19.3207 169.133 22.3379L168.415 23.5825C169.448 24.7152 170.383 25.9315 171.21 27.2201L172.596 26.8487C175.91 25.9607 179.329 27.9344 180.217 31.2483L181.315 35.3458C182.203 38.6598 180.229 42.0784 176.915 42.9663L175.529 43.3377C175.456 44.8674 175.255 46.3883 174.927 47.8857L176.172 48.6049C179.19 50.3447 180.145 54.1726 178.449 57.1057L176.329 60.7778C174.635 63.717 170.84 64.7959 167.829 63.0548L166.584 62.3363C165.451 63.3691 164.235 64.3041 162.946 65.1318L163.318 66.518C164.206 69.8317 162.232 73.2503 158.918 74.1383ZM141.844 64.6597C143.96 65.2506 146.145 65.54 148.338 65.5198C149.241 65.5114 150.035 66.115 150.269 66.9873L151.026 69.8115C151.348 71.0161 152.591 71.7335 153.796 71.4107L157.893 70.3128C159.098 69.9901 159.815 68.7474 159.493 67.5427L158.736 64.7186C158.502 63.8463 158.888 62.9264 159.674 62.4821C161.583 61.4033 163.331 60.0602 164.868 58.4903C165.501 57.8444 166.49 57.7088 167.273 58.1609L169.81 59.6254C170.904 60.2578 172.283 59.8667 172.899 58.7987L175.02 55.1243C175.635 54.0611 175.292 52.6683 174.194 52.0351L171.656 50.57C170.873 50.118 170.496 49.1933 170.739 48.3227C171.33 46.2064 171.619 44.0215 171.599 41.8286C171.59 40.9255 172.194 40.1314 173.066 39.8977L175.89 39.141C177.095 38.8182 177.813 37.5755 177.49 36.3709L176.392 32.2734C176.069 31.0688 174.826 30.3514 173.622 30.6741L170.798 31.4308C169.925 31.6646 169.005 31.2785 168.561 30.4924C167.482 28.5832 166.139 26.8357 164.569 25.2984C163.924 24.6659 163.788 23.6764 164.24 22.8935L165.705 20.3569C166.338 19.2614 165.944 17.8827 164.878 17.2677L161.203 15.1464C160.138 14.5304 158.746 14.877 158.114 15.9733L156.649 18.5109C156.197 19.2939 155.272 19.6713 154.402 19.4281C152.285 18.8372 150.101 18.5478 147.908 18.5681C147.005 18.5765 146.21 17.9728 145.977 17.1005L145.22 14.2761C144.897 13.0715 143.654 12.3541 142.45 12.6768L138.352 13.7747C137.148 14.0975 136.43 15.3402 136.753 16.5448L137.51 19.369C137.743 20.2413 137.357 21.1612 136.571 21.6055C134.662 22.6843 132.914 24.0274 131.377 25.5973C130.744 26.2431 129.755 26.3787 128.972 25.9267L126.436 24.4622C125.342 23.8297 123.962 24.2209 123.347 25.2889L121.225 28.9633C120.61 30.0265 120.953 31.4192 122.052 32.0525L124.59 33.5176C125.372 33.9696 125.75 34.8943 125.507 35.7649C124.916 37.8812 124.627 40.0661 124.647 42.259C124.655 43.162 124.051 43.9562 123.179 44.1899L120.355 44.9466C119.15 45.2695 118.433 46.5122 118.756 47.7168L119.854 51.8143C120.176 53.019 121.419 53.7364 122.624 53.4136L125.448 52.6569C126.32 52.4232 127.24 52.8092 127.684 53.5953C128.763 55.5045 130.106 57.2521 131.676 58.7894C132.322 59.4219 132.457 60.4114 132.005 61.1942L130.541 63.7308C129.907 64.8263 130.301 66.2051 131.368 66.82L135.042 68.9413C136.107 69.5573 137.499 69.2108 138.131 68.1144L139.596 65.5769C139.929 65.0001 140.772 64.3605 141.844 64.6597Z" fill="#E8E8E8"/>
<path d="M151.929 56.2488C144.096 58.3476 136.016 53.6827 133.918 45.85C131.819 38.0174 136.484 29.9376 144.316 27.8389C152.149 25.7401 160.229 30.405 162.328 38.2376C164.426 46.0702 159.762 54.15 151.929 56.2488ZM145.341 31.6643C139.618 33.1978 136.21 39.1017 137.743 44.825C139.277 50.5483 145.181 53.9569 150.904 52.4234C156.627 50.8898 160.036 44.9859 158.502 39.2626C156.969 33.5393 151.065 30.1307 145.341 31.6643Z" fill="#E8E8E8"/>
</g>
<defs>
<clipPath id="clip0">
<rect width="124.915" height="124.915" fill="white" transform="translate(0 12.0845)"/>
</clipPath>
<clipPath id="clip1">
<rect width="93.4053" height="93.4053" fill="white" transform="translate(103.534 81.2978) rotate(-5.1865)"/>
</clipPath>
<clipPath id="clip2">
<rect width="67.5898" height="67.5898" fill="white" transform="translate(106.732 18.1472) rotate(-15)"/>
</clipPath>
</defs>
</svg>
