<svg width="31" height="31" viewBox="0 0 31 31" fill="none" xmlns="http://www.w3.org/2000/svg">
<g id="24 / symbols / github">
<path id="icon" fill-rule="evenodd" clip-rule="evenodd" d="M12.9389 25.838C12.9456 25.9966 12.9285 26.1515 12.8951 26.3082C12.8364 26.5836 12.723 26.875 12.5625 27.1442C12.1063 27.9096 11.3312 28.4204 10.3333 28.4204C7.98263 28.4204 7.06004 27.2671 5.90488 24.3793C5.12254 22.4234 4.75346 21.962 3.875 21.962L3.875 19.3787C6.22571 19.3787 7.1483 20.5319 8.30345 23.4198C9.0858 25.3757 9.45487 25.837 10.3333 25.837C10.3333 25.4622 10.3282 25.1302 10.3174 24.6806C10.2921 23.6269 10.2892 23.4118 10.3351 23.1301C10.3535 22.5152 10.5123 22.0788 10.8306 21.6457C7.94787 21.0182 6.00356 19.7222 4.88763 17.6201L4.4696 16.637C4.06235 15.4666 3.875 14.1405 3.875 12.6089C3.875 10.8451 4.41278 9.26801 5.41727 7.9497C5.10393 6.6966 5.14684 5.16558 5.83873 3.43653L6.06481 2.87155L6.64442 2.68615C6.72202 2.66132 6.81636 2.6389 6.92719 2.62151C8.05582 2.44437 9.6618 2.867 11.7613 4.21184C12.999 3.92493 14.3024 3.78008 15.6147 3.78008C16.7873 3.78008 17.9535 3.8983 19.0671 4.13137C21.1098 2.85218 22.6716 2.45098 23.7699 2.62174C23.8795 2.63877 23.9728 2.66076 24.0498 2.68516L24.633 2.87011L24.8594 3.43854C25.4646 4.9585 25.5685 6.35926 25.3483 7.58496C26.503 8.97055 27.125 10.674 27.125 12.6089C27.125 14.2402 27.0081 15.4669 26.6722 16.6602L26.3176 17.6333C25.3894 19.7332 23.3423 21.0437 20.1856 21.6679C20.5137 22.1223 20.6667 22.5834 20.6667 23.2537V24.5454C20.6667 25.1713 20.6667 25.1906 20.6652 25.837C20.6682 25.8835 20.672 25.9062 20.6763 25.9204C20.6752 25.9207 20.6667 28.4204 20.6667 28.4204C19.5664 28.4204 18.7484 27.8838 18.346 27.0374C18.1374 26.5986 18.0751 26.1796 18.0833 25.8187V23.2537C18.0833 23.1454 18.0796 23.1391 17.8158 22.8754C17.1108 22.1704 16.7917 21.6385 16.7917 20.6704V19.5019L17.9543 19.3852C21.415 19.0376 23.2972 18.0765 23.9213 16.6725L24.2129 15.8753C24.4449 15.0417 24.5417 14.0265 24.5417 12.6089C24.5417 11.1027 24.0158 9.85852 23.0214 8.86444L22.4748 8.31805L22.6978 7.57807C22.896 6.92069 22.9431 6.14281 22.7335 5.25558C22.6986 5.26441 22.6624 5.27403 22.6248 5.28449C21.9332 5.47704 21.0697 5.8902 20.0292 6.58573L19.5546 6.90296L19.0005 6.76557C17.9288 6.49984 16.7773 6.36341 15.6147 6.36341C14.3218 6.36341 13.0438 6.5279 11.8633 6.84975L11.2871 7.00682L10.7942 6.66964C9.71802 5.93341 8.82396 5.49558 8.10705 5.29106C8.05585 5.27645 8.00709 5.26338 7.96075 5.25174C7.71063 6.27859 7.80956 7.12224 8.06288 7.75529L8.36662 8.51434L7.81056 9.11368C6.92449 10.0687 6.45833 11.2309 6.45833 12.6089C6.45833 13.8706 6.60603 14.916 6.87668 15.7035L7.21469 16.5036C8.05966 18.0892 9.85439 19.0431 13.0543 19.3861L14.2083 19.5098V20.6704C14.2083 21.6385 13.8892 22.1704 13.1842 22.8754C12.9204 23.1391 12.9167 23.1454 12.9167 23.2537L12.8944 23.4925C12.8797 23.5708 12.8797 23.773 12.9 24.6186C12.9093 25.0075 12.9147 25.3153 12.9162 25.637C12.9316 25.7036 12.934 25.7465 12.9389 25.838Z" fill="black"/>
</g>
</svg>
