<svg width="648" height="470" viewBox="0 0 648 470" fill="none" xmlns="http://www.w3.org/2000/svg">
<path opacity="0.1" d="M378.545 73.9195C337.317 72.4266 298.051 58.565 260.549 43.3962C223.048 28.2274 185.915 11.4196 145.675 3.41722C119.792 -1.75185 90.1962 -2.48176 69.3401 11.9704C49.2738 25.905 42.7889 49.8923 39.298 72.1678C36.6798 88.9357 35.1319 106.573 42.3239 122.266C47.3118 133.161 56.1728 142.318 62.3009 152.756C83.6158 189.066 68.5501 233.842 45.4453 269.296C34.6159 285.924 22.041 301.81 13.6769 319.5C5.31278 337.19 1.44604 357.488 8.75908 375.55C16.0148 393.466 33.2972 406.896 52.013 416.352C90.037 435.555 134.826 441.056 178.539 444.168C275.252 451.062 372.487 448.076 469.455 445.09C505.345 443.982 541.388 442.861 576.691 437.081C596.299 433.87 616.544 428.773 630.775 416.511C648.841 400.898 653.319 374.455 641.216 354.88C620.907 322.041 564.773 313.88 550.561 278.638C542.744 259.243 550.771 237.631 562.123 219.642C586.482 181.043 627.309 147.189 629.463 103.069C630.94 72.7716 611.314 42.4274 580.966 28.088C549.153 13.0586 505.045 14.9497 481.59 39.8263C457.409 65.3796 414.945 75.2334 378.545 73.9195Z" fill="#4813A2"/>
<g opacity="0.1">
<path opacity="0.1" d="M55.0074 217.884C55.0074 217.884 7.39618 197.022 1.13424 234.638C1.13424 234.638 -2.12096 240.504 2.40828 245.348C2.40828 245.348 3.38293 242.747 7.98224 245.434C9.62499 246.381 11.3699 247.12 13.1804 247.637C15.6253 248.34 18.2233 248.195 20.5826 247.226C20.5826 247.226 36.247 246.343 49.4207 224.997C49.4207 224.997 55.0711 221.361 55.3514 219.994L45.9107 220.657C45.9107 220.657 46.6369 227.857 42.7255 232.177C42.7255 232.177 46.1909 221.002 44.5283 220.691C44.1907 220.624 39.5404 221.261 39.5404 221.261C39.5404 221.261 40.7444 233.782 34.4442 240.259C34.4442 240.259 40.2921 227.525 37.7504 221.487L30.7813 222.887C30.7813 222.887 32.6924 236.058 25.7998 243.716C25.7998 243.716 31.4693 230.179 29.278 223.305L22.6083 225.641C22.6083 225.641 24.2136 238.52 18.4486 244.884C18.4486 244.884 23.481 228.554 21.1113 226.304C21.1113 226.304 15.1105 228.839 13.8301 230.285C13.8301 230.285 14.7793 239.575 11.1164 242.926C11.1164 242.926 13.3651 231.646 12.2503 231.181C12.2503 231.181 5.28126 236.649 3.1536 241.367C3.1536 241.367 5.80362 234.161 11.3776 230.086C11.3776 230.086 6.69546 229.264 3.09627 231.301C3.09627 231.301 5.50422 226.516 13.0657 228.786C13.0657 228.786 18.6651 224.745 19.7863 224.805C19.7863 224.805 12.6325 221.487 7.46626 221.898C7.46626 221.898 13.0084 218.58 21.5318 224.121L28.1887 221.619C28.1887 221.619 18.9518 216.689 14.327 216.709C14.327 216.709 20.4807 214.228 29.915 221.128L36.7311 219.682C36.7311 219.682 29.0869 214.805 23.9333 213.67C23.9333 213.67 30.1125 212.648 38.6996 219.344L43.3562 218.939C43.3562 218.939 37.7185 215.475 36.0113 214.632C34.3041 213.79 34.3805 213.245 34.3805 213.245C38.4418 213.981 42.2265 215.879 45.3119 218.726C45.3119 218.726 54.9692 218.501 55.0074 217.884Z" fill="#FF9DF7"/>
</g>
<g opacity="0.1">
<path opacity="0.1" d="M53.2616 180.486C53.2616 180.486 36.3741 139.83 12.0907 158.476C12.0907 158.476 6.95631 160.029 6.99453 165.576C6.99453 165.576 8.99479 164.607 10.2625 168.94C10.7273 170.477 11.369 171.95 12.1735 173.326C13.2369 175.197 14.859 176.653 16.792 177.473C16.792 177.473 26.583 186.246 46.0951 181.382C46.0951 181.382 51.4461 182.569 52.357 181.932L46.3945 176.71C46.3945 176.71 42.8845 181.422 38.1832 181.647C38.1832 181.647 46.3563 177.069 45.5409 175.894C45.3752 175.655 42.2602 173.28 42.2602 173.28C42.2602 173.28 36.132 181.428 28.8827 181.554C28.8827 181.554 39.3235 177.453 41.1135 172.364L36.2085 169.046C36.2085 169.046 30.1312 177.998 21.8563 178.462C21.8563 178.462 32.6284 173.784 35.0873 168.396L29.8446 165.828C29.8446 165.828 23.7546 174.454 16.8684 174.779C16.8684 174.779 28.7935 168.064 28.6088 165.324C28.6088 165.324 23.6591 163.267 22.0856 163.386C22.0856 163.386 17.5819 169.458 13.5623 169.285C13.5623 169.285 21.0728 163.917 20.6651 162.981C20.6651 162.981 13.5304 162.092 9.68914 163.645C9.68914 163.645 15.2058 160.938 20.7415 161.827C20.7415 161.827 18.41 158.556 15.1675 157.647C15.1675 157.647 19.219 156.233 22.4678 162.059C22.4678 162.059 27.9972 162.988 28.647 163.678C28.647 163.678 26.2199 157.447 22.9138 154.641C22.9138 154.641 28.01 155.968 30.0484 164.309L35.374 166.77C35.374 166.77 32.5838 158.357 29.8191 155.629C29.8191 155.629 34.8325 157.806 36.6671 167.507L41.5085 170.685C41.5085 170.685 39.6356 163.254 37.1958 159.518C37.1958 159.518 41.4257 162.583 42.859 171.654L45.853 174.176C45.853 174.176 44.3942 168.774 43.84 167.261C43.2858 165.748 43.6298 165.47 43.6298 165.47C45.6421 168.315 46.8532 171.688 47.127 175.211C47.127 175.211 52.8858 180.824 53.2616 180.486Z" fill="#FF9DF7"/>
</g>
<path d="M594.515 442.688C593.878 440.286 593.241 437.851 591.967 435.761C590.785 433.987 589.38 432.387 587.788 431.003C583.17 426.63 577.494 422.191 571.372 423.299C569.474 423.731 567.64 424.428 565.919 425.369C565.028 425.801 564.129 426.232 563.212 426.597C560.628 427.722 557.771 427.981 555.039 427.34C553.638 426.949 552.332 426.245 550.949 425.807C550.291 425.603 549.618 425.452 548.936 425.356C550.271 424.727 551.568 424.016 552.822 423.226C559.696 418.8 565.18 410.838 564.41 402.411C564.155 399.557 563.212 396.83 562.282 394.143C561.467 391.794 560.649 389.443 559.829 387.089C558.772 384.03 557.683 380.918 555.746 378.377C553.593 375.55 550.535 373.632 547.376 372.199C540.585 369.127 533.164 368.045 525.838 366.997L525.328 366.924V284.484C525.332 283.784 525.204 283.091 524.95 282.443C524.695 281.795 524.321 281.206 523.847 280.709C523.373 280.213 522.81 279.819 522.19 279.55C521.569 279.281 520.904 279.143 520.232 279.143H510.594C510.169 276.435 509.745 273.73 509.32 271.027C508.103 263.324 506.848 255.467 503.44 248.526C501.211 243.981 497.656 239.655 492.872 238.759C491.93 238.667 491.005 238.444 490.12 238.095C488.719 237.379 487.954 235.786 486.871 234.605C484.094 231.573 479.577 231.526 475.851 229.96C472.564 228.6 469.875 226.032 466.881 224.061C463.887 222.091 460.161 220.684 456.842 221.971C456.842 222.223 456.797 222.469 456.772 222.721L454.644 221.726C452.351 220.624 450.007 219.483 448.166 217.665C445.796 215.336 444.535 212.263 443.553 208.985C443.452 208.64 443.356 208.322 443.26 207.957C447.331 203.624 450.087 198.138 451.185 192.184C451.357 192.762 451.535 193.346 451.707 193.929C451.864 194.523 452.077 195.099 452.344 195.648C452.433 195.83 452.533 196.005 452.644 196.172C452.854 196.498 453.117 196.783 453.421 197.015C453.723 197.244 454.076 197.388 454.447 197.433C454.624 197.459 454.804 197.459 454.982 197.433C455.463 197.327 455.911 197.097 456.285 196.765C456.659 196.432 456.946 196.007 457.122 195.529C457.224 195.268 457.298 194.996 457.345 194.719C457.37 194.552 457.385 194.384 457.39 194.215C457.39 194.162 457.39 194.109 457.39 194.056C457.39 194.002 457.39 193.823 457.39 193.71C457.39 193.598 457.39 193.584 457.39 193.525C457.39 193.465 457.39 193.299 457.39 193.193V193.02C457.39 192.888 457.351 192.755 457.326 192.629C457.3 192.503 457.326 192.556 457.326 192.523C457.294 192.35 457.256 192.184 457.224 192.012C457.221 191.974 457.221 191.937 457.224 191.899L457.128 191.481L457.071 191.229V191.162C457.007 190.904 456.95 190.638 456.893 190.373C456.43 188.068 456.312 185.702 456.542 183.359C456.926 179.922 457.535 176.517 458.364 173.167L458.498 172.563L458.651 171.86C458.753 171.382 458.848 170.904 458.944 170.426C459.027 170.022 459.103 169.61 459.173 169.199C459.243 168.788 459.294 168.476 459.345 168.111C459.345 168.064 459.345 168.024 459.345 167.978C459.735 165.505 459.839 162.992 459.657 160.493C459.358 157.023 458.326 153.738 456.058 151.117C454.459 149.266 452.357 147.899 450.873 145.955C449.478 144.13 448.694 141.887 447.255 140.102C443.273 135.152 433.062 131.337 426.793 130.673C419.614 129.917 408.014 131.828 402.23 136.247C400.089 137.879 398.624 140.228 397.134 142.464C394.394 146.618 391.279 150.759 386.89 153.081C385.228 153.957 383.329 154.621 382.227 156.147C381.561 157.182 381.126 158.358 380.953 159.591C380.106 163.915 379.667 168.316 379.641 172.729C379.546 174.66 379.783 176.592 380.342 178.436C380.431 178.688 380.539 178.946 380.654 179.192C380.756 179.411 380.87 179.63 380.991 179.856L381.068 179.995C381.837 181.144 382.52 182.353 383.113 183.611C383.253 183.966 383.355 184.335 383.418 184.713C383.528 185.687 383.467 186.674 383.24 187.626C383.24 187.772 383.189 187.911 383.157 188.05L383.1 188.356C383.1 188.449 383.1 188.548 383.049 188.641C382.998 188.929 382.953 189.214 382.915 189.497C382.915 189.696 382.877 189.902 382.871 190.107C382.825 190.929 382.976 191.75 383.31 192.496C383.394 192.674 383.494 192.843 383.61 193C383.838 193.319 384.132 193.579 384.47 193.764C385.228 194.061 386.02 194.257 386.827 194.348C389.209 194.905 390.7 196.803 391.668 199.132C391.883 199.654 392.072 200.188 392.235 200.731C392.632 202.092 392.93 203.483 393.127 204.891C394.21 204.832 394.84 203.836 395.222 202.748C395.342 202.389 395.442 202.024 395.522 201.653C395.668 200.956 395.815 200.26 395.968 199.563C398.482 205.121 402.533 209.769 407.6 212.914C407.778 213.458 407.95 214.009 408.109 214.566C408.944 217.572 409.345 220.724 407.899 223.351C406.867 225.216 405.128 226.37 403.192 227.167C402.913 226.777 402.554 226.457 402.141 226.231C400.459 225.355 398.446 226.424 397.044 227.731C394.496 230.133 392.42 233.577 389.062 234.366C387.852 234.658 386.514 234.599 385.501 235.368C384.835 236.022 384.277 236.786 383.852 237.631C383.124 238.719 382.145 239.599 381.005 240.191C379.865 240.782 378.601 241.065 377.328 241.015C376.163 240.955 374.78 240.677 373.984 241.566C373.392 242.229 373.347 243.284 372.71 243.915C371.85 244.791 370.455 244.359 369.257 244.306C368.392 244.309 367.536 244.495 366.742 244.853C365.948 245.211 365.233 245.734 364.639 246.39C364.564 243.713 363.58 241.15 361.862 239.157C360.142 237.312 357.753 236.364 355.714 234.917C350.618 231.307 348.07 224.964 345.414 219.151C342.757 213.338 339.254 207.207 333.457 205.09C332.125 204.599 330.271 204.56 329.673 205.907C329.469 206.469 329.436 207.082 329.577 207.665C330.138 210.757 332.253 213.239 334.081 215.727C337.158 219.921 339.738 225.05 338.992 230.292C338.12 236.496 332.813 241.314 332.176 247.544C331.896 250.291 332.565 253.052 332.558 255.812C332.558 257.537 332.297 259.283 332.654 260.961C333.033 262.237 333.482 263.489 333.998 264.71C334.572 266.716 334.868 268.796 334.877 270.888C335.327 279.682 335.775 288.479 336.221 297.278C336.559 303.84 335.183 310.316 333.794 316.773C332.072 320.6 330.736 324.602 329.806 328.717C328.239 335.903 328.195 343.56 330.444 350.554C331.647 354.356 333.495 357.919 334.482 361.788C334.482 361.874 334.52 361.954 334.54 362.034C334.635 362.856 334.743 363.679 334.89 364.495C335.071 365.438 335.307 366.369 335.597 367.282C335.886 368.855 336.357 370.386 336.998 371.841C337.892 373.689 339.204 375.283 340.821 376.486C339.903 378.357 338.419 379.863 337.432 381.695C335.712 384.866 335.642 388.761 336.266 392.358C337.47 399.299 341.069 405.503 345.821 410.546C345.609 410.533 345.396 410.533 345.184 410.546C343.63 410.725 342.137 411.282 340.827 412.171C330.768 418.296 325.016 431.414 327.118 443.425C327.532 445.774 328.252 448.149 329.756 449.934C331.007 451.355 332.616 452.383 334.399 452.9C335.513 453.249 336.66 453.472 337.82 453.564C345.662 454.227 353.255 450.438 361.116 450.12C363.722 450.077 366.329 450.203 368.92 450.498C372.704 450.826 376.496 451.033 380.297 451.122C386.47 451.275 389.948 449.562 393.891 444.752C394.86 443.558 395.668 442.232 396.293 440.81C399.643 440.611 403.345 440.306 406.026 440.074L406.065 440.465C406.211 441.792 406.434 443.318 407.453 444.161C408.029 444.568 408.68 444.843 409.364 444.971C415.805 446.623 422.321 448.289 428.947 448.289C432.058 448.221 435.163 447.971 438.247 447.539L449.905 446.139C453.297 446.593 456.645 447.353 459.912 448.408C463.276 449.602 466.423 451.374 469.71 452.767C477.354 455.999 485.584 457.154 493.732 458.282C495.121 458.474 496.713 458.607 497.745 457.618C499.07 456.291 498.624 454.068 498.255 452.21C498.102 451.454 497.987 450.684 497.892 449.914C503.391 451.42 508.771 453.365 513.983 455.734L514.9 456.152C515.161 457.598 516.448 458.759 517.678 460.319C518.081 460.975 518.553 461.582 519.085 462.13C519.692 462.546 520.383 462.808 521.105 462.893C529.714 464.563 538.504 464.976 547.223 464.121C549.006 463.868 550.81 463.804 552.606 463.928C553.924 464.114 555.224 464.421 556.491 464.844L563.868 467.04C569.302 468.666 574.876 470.305 580.514 469.94C581.659 469.862 582.796 469.691 583.915 469.429C588.375 468.354 592.534 465.753 594.675 461.573C597.548 455.886 596.153 448.899 594.515 442.688ZM378.144 338.902C377.917 341.779 377.196 344.591 376.016 347.203C375.226 348.869 374.207 350.401 373.468 352.074C372.767 353.587 372.245 356.446 371.933 359.585C371.551 359.519 371.162 359.459 370.78 359.412C371.347 357.342 371.774 355.219 372.341 353.142C373.685 348.205 375.895 343.54 378.144 338.902Z" fill="url(#paint0_linear)"/>
<path d="M387.96 440.956C386.616 437.771 385.342 434.109 386.686 430.923C387.564 429.048 389.071 427.572 390.923 426.776C392.755 425.998 394.686 425.502 396.656 425.303C402.838 424.459 409.093 424.37 415.295 425.038C415.747 428.767 414.792 432.549 413.97 436.152C413.225 439.47 412.798 439.961 409.511 440.134C407.383 440.253 388.464 442.131 387.96 440.956Z" fill="#F3C5B6"/>
<path d="M444.687 419.471C494.997 419.471 535.782 407.587 535.782 392.929C535.782 378.27 494.997 366.386 444.687 366.386C394.377 366.386 353.593 378.27 353.593 392.929C353.593 407.587 394.377 419.471 444.687 419.471Z" fill="#464353"/>
<path opacity="0.1" d="M444.687 419.471C494.997 419.471 535.782 407.587 535.782 392.929C535.782 378.27 494.997 366.386 444.687 366.386C394.377 366.386 353.593 378.27 353.593 392.929C353.593 407.587 394.377 419.471 444.687 419.471Z" fill="black"/>
<path d="M461.021 252.813C457.898 259.098 452.712 264.005 446.407 266.641C442.695 268.051 438.789 268.826 434.839 268.937C430.514 269.143 426.099 268.851 422.035 267.312C416.582 265.255 412.053 261.048 408.657 256.144C405.262 251.24 402.924 245.64 400.892 239.993C399.822 237.054 398.803 233.922 399.306 230.816C402.586 230.04 406.179 228.899 407.874 225.866C409.32 223.265 408.919 220.146 408.084 217.174C407.848 216.331 407.574 215.495 407.3 214.692C406.663 212.768 404.466 209.112 405.995 207.466C406.969 206.424 411.053 205.893 412.46 205.216C416.799 203.133 420.799 200.12 425.564 199.132C429.686 198.276 433.941 199.079 438.056 199.968C438.602 200.05 439.126 200.247 439.598 200.545C440.135 201.017 440.533 201.638 440.744 202.337C441.916 205.309 442.604 208.594 443.547 211.693C444.528 214.938 445.79 217.983 448.153 220.286C449.994 222.084 452.338 223.212 454.631 224.307L460.275 227.001C461.279 227.392 462.19 228.006 462.945 228.799C463.683 229.856 464.124 231.106 464.219 232.409C465.23 239.391 464.111 246.528 461.021 252.813Z" fill="#F3C5B6"/>
<path opacity="0.1" d="M443.522 211.693C439.029 216.561 433.113 219.74 426.701 220.731C420.288 221.723 413.741 220.472 408.084 217.174C407.848 216.331 407.574 215.495 407.3 214.692C406.663 212.768 404.466 209.112 405.995 207.466C406.969 206.424 411.053 205.893 412.46 205.216C416.798 203.133 420.799 200.12 425.564 199.132C429.686 198.276 433.941 199.079 438.056 199.968C438.602 200.05 439.126 200.247 439.598 200.545C440.135 201.017 440.533 201.638 440.744 202.337C441.891 205.309 442.579 208.594 443.522 211.693Z" fill="black"/>
<path d="M422.392 219.742C438.575 219.742 451.695 206.076 451.695 189.218C451.695 172.361 438.575 158.695 422.392 158.695C406.208 158.695 393.088 172.361 393.088 189.218C393.088 206.076 406.208 219.742 422.392 219.742Z" fill="#F3C5B6"/>
<path d="M511.67 288.28L509.263 273.085C508.046 265.46 506.791 257.69 503.389 250.822C501.153 246.323 497.605 242.037 492.821 241.148C491.879 241.06 490.952 240.837 490.069 240.484C488.668 239.781 487.903 238.202 486.827 237.034C484.049 234.035 479.526 233.988 475.806 232.462C472.519 231.135 469.831 228.58 466.837 226.629C463.843 224.678 460.116 223.312 456.804 224.559C456.268 230.498 455.702 236.569 453.281 241.977C451.705 245.498 449.394 248.607 446.517 251.078C443.639 253.548 440.268 255.318 436.649 256.256C433.031 257.195 429.257 257.28 425.603 256.504C421.949 255.728 418.508 254.111 415.531 251.771C409.855 247.319 406.217 240.451 404.523 233.265C404.109 231.513 403.638 229.502 402.09 228.7C400.414 227.824 398.401 228.885 396.993 230.173C394.413 232.555 392.362 235.965 389.011 236.768C387.801 237.06 386.463 237.001 385.457 237.764C384.788 238.407 384.228 239.163 383.801 240C383.067 241.079 382.088 241.951 380.95 242.537C379.812 243.123 378.552 243.405 377.284 243.357C376.118 243.298 374.736 243.019 373.939 243.902C373.347 244.565 373.302 245.6 372.665 246.217C371.805 247.087 370.41 246.662 369.213 246.615C366.945 246.516 364.836 248.029 363.537 249.933C362.237 251.838 361.626 254.193 360.989 256.476C367.951 272.627 374.322 288.797 381.284 304.948C381.611 305.557 381.784 306.242 381.788 306.939C381.648 307.662 381.352 308.343 380.921 308.93C377.507 314.643 377.615 321.829 377.991 328.544C378.367 335.259 378.825 342.353 375.946 348.371C375.163 350.023 374.143 351.536 373.398 353.188C371.653 356.931 371.022 368.901 372.041 372.922H516.009C513.263 365.059 514.308 349.28 514.881 340.933C515.282 335.093 514.244 329.261 513.798 323.422C512.862 311.498 513.562 300.184 511.67 288.28Z" fill="#F2AC1F"/>
<path d="M519.041 368.278C521.162 367.435 523.5 367.74 525.774 368.059C533.094 369.1 540.521 370.169 547.306 373.214C550.491 374.634 553.523 376.532 555.676 379.326C557.587 381.841 558.702 384.919 559.759 387.952L562.206 394.913C563.136 397.567 564.078 400.274 564.34 403.094C565.104 411.448 559.619 419.325 552.72 423.664C545.821 428.004 537.699 429.55 529.787 431.169C521.876 432.788 513.932 434.58 506.052 436.477C502.377 437.471 498.648 438.235 494.885 438.767C486.451 439.762 477.634 438.296 469.621 441.202C466.435 442.363 463.308 444.088 460.002 444.891C457.809 445.392 455.59 445.765 453.357 446.006L438.19 447.811C435.105 448.24 432 448.489 428.889 448.554C422.264 448.554 415.747 446.922 409.313 445.289C408.629 445.164 407.978 444.891 407.402 444.486C406.383 443.65 406.16 442.171 406.014 440.83C405.364 434.898 404.795 428.959 404.306 423.014C404.154 421.083 404.039 418.993 405.052 417.367C406.326 415.376 408.81 414.753 411.078 414.368C420.694 412.729 430.436 412.025 440.177 412.264C443.878 408.409 449.981 408.389 454.829 406.292C456.612 405.439 458.338 404.462 459.995 403.366C468.663 398.098 478.349 394.909 488.349 394.03C490.308 393.968 492.255 393.678 494.152 393.167C497.904 391.953 501.325 388.649 505.179 389.458C505.657 388.085 505.988 386.247 507.09 385.304C507.638 384.82 508.313 384.495 508.817 383.977C509.88 382.856 509.976 381.091 509.817 379.525C509.658 377.959 509.301 376.353 509.689 374.827C509.851 374.249 510.089 373.697 510.396 373.188C512.314 369.698 515.2 367.946 519.041 368.278Z" fill="#464353"/>
<path opacity="0.05" d="M519.041 368.278C521.162 367.435 523.5 367.74 525.774 368.059C533.094 369.1 540.521 370.169 547.306 373.214C550.491 374.634 553.523 376.532 555.676 379.326C557.587 381.841 558.702 384.919 559.759 387.952L562.206 394.913C563.136 397.567 564.078 400.274 564.34 403.094C565.104 411.448 559.619 419.325 552.72 423.664C545.821 428.004 537.699 429.55 529.787 431.169C521.876 432.788 513.932 434.58 506.052 436.477C502.377 437.471 498.648 438.235 494.885 438.767C486.451 439.762 477.634 438.296 469.621 441.202C466.435 442.363 463.308 444.088 460.002 444.891C457.809 445.392 455.59 445.765 453.357 446.006L438.19 447.811C435.105 448.24 432 448.489 428.889 448.554C422.264 448.554 415.747 446.922 409.313 445.289C408.629 445.164 407.978 444.891 407.402 444.486C406.383 443.65 406.16 442.171 406.014 440.83C405.364 434.898 404.795 428.959 404.306 423.014C404.154 421.083 404.039 418.993 405.052 417.367C406.326 415.376 408.81 414.753 411.078 414.368C420.694 412.729 430.436 412.025 440.177 412.264C443.878 408.409 449.981 408.389 454.829 406.292C456.612 405.439 458.338 404.462 459.995 403.366C468.663 398.098 478.349 394.909 488.349 394.03C490.308 393.968 492.255 393.678 494.152 393.167C497.904 391.953 501.325 388.649 505.179 389.458C505.657 388.085 505.988 386.247 507.09 385.304C507.638 384.82 508.313 384.495 508.817 383.977C509.88 382.856 509.976 381.091 509.817 379.525C509.658 377.959 509.301 376.353 509.689 374.827C509.851 374.249 510.089 373.697 510.396 373.188C512.314 369.698 515.2 367.946 519.041 368.278Z" fill="black"/>
<path d="M393.821 445.057C389.878 449.815 386.406 451.513 380.233 451.361C376.437 451.268 372.644 451.062 368.856 450.744C366.267 450.452 363.663 450.326 361.059 450.366C353.198 450.684 345.611 454.433 337.769 453.776C336.61 453.681 335.463 453.459 334.348 453.113C332.579 452.6 330.981 451.587 329.73 450.186C328.227 448.415 327.507 446.066 327.093 443.743C324.997 431.839 330.743 418.873 340.802 412.815C342.114 411.932 343.606 411.38 345.159 411.203C346.682 411.196 348.187 411.541 349.567 412.211L349.662 412.251C353.749 414.003 357.461 416.583 360.581 419.842C361.055 420.407 361.619 420.881 362.25 421.242C362.879 421.49 363.546 421.62 364.219 421.627L372.589 422.178C374.007 422.222 375.417 422.424 376.793 422.782C378.311 423.334 379.789 423.999 381.214 424.772C385.718 426.869 390.712 427.427 395.579 428.236C396.048 428.263 396.496 428.45 396.853 428.767C397.047 429.019 397.183 429.314 397.248 429.63C397.928 432.297 397.971 435.098 397.373 437.787C396.776 440.475 395.556 442.972 393.821 445.057Z" fill="#3F3D56"/>
<path opacity="0.1" d="M349.637 412.251C346.389 415.481 343.572 419.15 341.26 423.16C337.55 429.777 335.219 437.134 334.419 444.752C334.115 447.531 334.091 450.335 334.348 453.119C332.579 452.604 330.98 451.589 329.73 450.186C328.227 448.415 327.507 446.066 327.093 443.743C324.997 431.839 330.743 418.873 340.802 412.815C342.114 411.932 343.606 411.38 345.159 411.203C346.682 411.196 348.187 411.541 349.567 412.211L349.637 412.251Z" fill="black"/>
<path d="M511.753 428.754C516.436 428.621 521.691 428.375 525.131 431.66C528.412 434.765 528.845 439.888 529.061 444.5L529.31 449.855C529.386 451.487 529.45 453.172 528.819 454.685C527.698 457.339 524.621 458.62 521.812 458.468C519.003 458.315 516.423 457.034 513.856 455.88C506.886 452.752 499.629 450.371 492.197 448.773C492.439 445.07 492.842 441.385 493.407 437.718C493.796 435.177 493.859 430.924 495.49 428.813C497.216 426.584 499.465 427.792 501.809 428.203C505.099 428.726 508.429 428.91 511.753 428.754Z" fill="#F3C5B6"/>
<path d="M388.031 374.953C388.031 375.616 387.03 374.953 386.941 374.243C386.24 368.875 382.151 364.449 377.386 362.299C372.621 360.149 367.193 360.036 362.034 360.547C354.23 361.317 345.503 364.429 342.617 372.027C341.942 373.805 341.636 375.729 340.808 377.435C339.891 379.306 338.394 380.799 337.4 382.617C335.686 385.762 335.616 389.617 336.234 393.174C337.897 402.663 344.127 410.778 351.676 416.398C359.224 422.019 368.047 425.376 376.844 428.402C400.106 436.393 423.973 442.331 448.191 446.152C452.115 446.769 456.077 447.34 459.836 448.654C463.199 449.828 466.346 451.587 469.633 452.967C477.278 456.165 485.502 457.306 493.649 458.428C495.038 458.614 496.63 458.746 497.656 457.764C498.981 456.484 498.541 454.254 498.166 452.416C496.782 445.433 497.938 438.164 501.408 432.018C502.771 429.63 504.542 427.181 504.287 424.414C503.982 421.189 500.898 418.907 497.828 418.389C494.758 417.871 491.636 418.635 488.553 419.053C487.489 419.199 486.33 419.291 485.368 418.727C484.91 418.405 484.494 418.021 484.132 417.586C482.008 415.452 479.29 414.073 476.367 413.647C473.444 413.222 470.467 413.771 467.862 415.217C466.722 415.881 464.996 414.401 463.811 413.844L450.427 407.52C435.036 400.267 419.57 392.982 403.287 388.39C401.988 388.124 400.753 387.589 399.656 386.817C398.847 386.154 398.267 385.251 397.522 384.515C395.898 382.916 393.636 382.279 391.687 381.144C389.738 380.009 387.572 377.229 388.031 374.953Z" fill="#464353"/>
<path d="M594.547 461.672C592.407 465.806 588.254 468.381 583.794 469.443C582.675 469.706 581.538 469.874 580.393 469.947C574.755 470.312 569.187 468.686 563.754 467.08L556.377 464.904C555.109 464.488 553.809 464.186 552.491 464.001C550.697 463.877 548.896 463.941 547.114 464.194C538.396 465.039 529.607 464.628 520.996 462.973C520.276 462.892 519.584 462.635 518.977 462.223C518.445 461.68 517.973 461.077 517.569 460.425C515.563 457.91 513.403 456.444 515.779 453.126C517.149 451.202 519.691 450.239 520.754 448.03C521.818 445.82 521.137 442.682 520.506 440.399C519.646 437.247 516.818 435.887 515.805 432.994C515.047 430.811 516.321 428.276 518.238 427.088C520.156 425.9 522.525 425.808 524.736 426.113C526.946 426.418 529.112 427.068 531.335 427.247C537.871 427.792 544.554 424.281 550.828 426.259C552.211 426.697 553.517 427.393 554.918 427.778C557.65 428.415 560.504 428.158 563.091 427.042C564.008 426.683 564.907 426.252 565.798 425.827C567.518 424.895 569.35 424.205 571.245 423.777C577.367 422.682 583.043 427.095 587.661 431.401C589.246 432.772 590.65 434.356 591.834 436.112C593.108 438.183 593.783 440.591 594.382 442.967C596.07 449.118 597.465 456.032 594.547 461.672Z" fill="#3F3D56"/>
<path opacity="0.1" d="M594.547 461.672C592.407 465.806 588.253 468.381 583.794 469.443C585.529 465.932 586.311 461.995 586.056 458.056C585.674 451.746 583.011 445.8 579.615 440.558C577.527 437.331 575.151 434.317 572.519 431.554C570.493 429.431 568.002 427.745 565.824 425.801C567.544 424.868 569.375 424.179 571.27 423.751C577.392 422.656 583.068 427.068 587.687 431.375C589.272 432.745 590.675 434.33 591.859 436.086C593.133 438.156 593.808 440.565 594.407 442.94C596.07 449.118 597.465 456.032 594.547 461.672Z" fill="black"/>
<path d="M402.147 139.678C400.006 141.29 398.541 143.606 397.051 145.829C394.305 149.936 391.196 154.037 386.807 156.326C385.145 157.195 383.246 157.852 382.144 159.365C381.49 160.388 381.066 161.552 380.902 162.769C380.061 167.05 379.622 171.405 379.59 175.775C379.59 177.951 379.679 180.194 380.603 182.171C381.475 184.029 383.049 185.602 383.374 187.626C383.622 189.205 383.062 190.778 382.864 192.363C382.667 193.949 383.011 195.827 384.419 196.584C385.177 196.881 385.969 197.075 386.776 197.161C391.012 198.143 392.432 203.319 393.076 207.599C394.515 207.512 395.165 205.794 395.465 204.394L399.879 183.95C400.357 181.733 401.153 179.165 403.274 178.389C404.695 177.878 406.249 178.356 407.734 178.489C413.562 178.986 418.493 174.295 424.194 173.001C426.02 172.62 427.885 172.492 429.743 172.623C434.24 172.855 439.47 174.779 440.426 179.152C440.585 179.862 440.68 180.712 441.317 181.063C441.954 181.415 442.592 181.116 443.292 181.063C446.146 180.765 447.828 184.109 448.65 186.843L451.644 196.796C452.09 198.302 452.841 200.074 454.408 200.266C455.854 200.452 457.084 199.026 457.3 197.612C457.517 196.199 457.046 194.732 456.733 193.312C455.326 186.776 457.479 180.088 458.791 173.539C460.103 166.989 460.339 159.465 455.937 154.422C454.338 152.597 452.236 151.237 450.745 149.312C449.357 147.507 448.573 145.291 447.133 143.519C443.152 138.629 432.941 134.854 426.679 134.23C419.55 133.414 407.931 135.305 402.147 139.678Z" fill="#2D2C3E"/>
<g opacity="0.1">
<path opacity="0.1" d="M454.434 195.615C452.867 195.416 452.115 193.624 451.669 192.145C450.671 188.822 449.673 185.505 448.675 182.191C447.853 179.451 446.172 176.107 443.318 176.412C442.681 176.485 441.929 176.757 441.343 176.412C440.757 176.067 440.61 175.211 440.451 174.501C439.496 170.121 434.266 168.204 429.768 167.971C427.911 167.844 426.045 167.971 424.22 168.35C418.487 169.677 413.588 174.322 407.759 173.837C406.256 173.711 404.701 173.233 403.3 173.744C401.153 174.514 400.382 177.062 399.905 179.305L395.49 199.742C395.191 201.149 394.541 202.868 393.101 202.947C392.464 198.674 391.037 193.498 386.801 192.516C385.996 192.424 385.204 192.23 384.444 191.939C383.89 191.623 383.456 191.12 383.215 190.512C383.1 191.129 382.966 191.746 382.89 192.364C382.699 193.943 383.036 195.827 384.444 196.584C385.203 196.881 385.995 197.075 386.801 197.161C391.037 198.143 392.458 203.319 393.101 207.599C394.541 207.512 395.191 205.794 395.49 204.394L399.905 183.95C400.382 181.733 401.179 179.165 403.3 178.389C404.72 177.878 406.275 178.356 407.759 178.489C413.588 178.986 418.518 174.295 424.22 173.001C426.037 172.622 427.894 172.495 429.743 172.623C434.24 172.855 439.47 174.779 440.426 179.152C440.585 179.862 440.68 180.712 441.318 181.063C441.955 181.415 442.592 181.116 443.292 181.063C446.146 180.765 447.828 184.109 448.65 186.843C449.643 190.165 450.641 193.483 451.644 196.796C452.09 198.302 452.841 200.074 454.408 200.266C455.854 200.452 457.084 199.026 457.3 197.612C457.398 196.423 457.268 195.225 456.918 194.089C456.692 194.567 456.336 194.967 455.895 195.238C455.453 195.509 454.946 195.64 454.434 195.615Z" fill="black"/>
<path opacity="0.1" d="M383.38 182.981C383.055 180.957 381.469 179.384 380.609 177.527C380.056 176.273 379.736 174.922 379.666 173.545C379.666 174.288 379.603 175.032 379.596 175.781C379.596 177.958 379.685 180.201 380.609 182.178C381.316 183.684 382.482 185.011 383.068 186.544C383.377 185.386 383.483 184.179 383.38 182.981Z" fill="black"/>
<path opacity="0.1" d="M458.817 168.861C457.657 174.647 455.848 180.539 456.409 186.338C456.772 182.059 457.969 177.752 458.817 173.505C459.523 170.283 459.772 166.969 459.556 163.672C459.417 165.416 459.17 167.149 458.817 168.861Z" fill="black"/>
</g>
<path d="M385.89 317.609C385.119 330.787 375.838 341.676 372.302 354.35C371.423 357.521 370.895 360.813 369.633 363.832C367.085 369.903 361.842 374.309 356.256 377.415C354.217 378.642 351.988 379.486 349.669 379.91C347.12 380.22 344.54 379.714 342.274 378.458C340.008 377.203 338.164 375.258 336.986 372.883C335.527 369.797 335.323 366.247 334.438 362.929C333.45 359.101 331.603 355.571 330.399 351.808C328.182 344.887 328.227 337.31 329.762 330.196C331.216 324.01 333.519 318.075 336.597 312.572C337.043 311.756 337.495 310.947 337.96 310.144C339.274 307.823 340.75 305.605 342.375 303.508C346.197 298.711 351.109 295.022 355.969 291.385C356.34 291.067 356.776 290.84 357.243 290.722H357.32C357.868 290.702 358.411 290.835 358.893 291.107C365.634 294.142 372.103 297.793 378.227 302.015C380.418 303.535 383.877 305.234 385.024 307.821C386.17 310.409 386.056 314.795 385.89 317.609Z" fill="#F3C5B6"/>
<path d="M360.6 256.967C359.98 257.643 359.498 258.445 359.186 259.322C354.037 271.411 350.995 284.357 350.204 297.556C350.218 298.2 350.075 298.837 349.79 299.408C349.508 299.787 349.195 300.141 348.853 300.463C348.543 300.846 348.312 301.291 348.173 301.77C348.035 302.25 347.993 302.754 348.049 303.252C348.105 303.75 348.258 304.23 348.5 304.663C348.741 305.096 349.065 305.473 349.452 305.771C350.503 303.707 353.02 303.037 355.256 302.858C365.964 301.976 376.424 307.164 387.164 306.773C386.406 304.046 385.317 301.425 384.699 298.664C381.966 286.409 388.782 273.065 384.603 261.26C383.769 258.898 382.374 256.575 380.176 255.54C379.266 255.157 378.314 254.894 377.341 254.757C374.627 254.246 369.226 252.063 366.601 252.939C365.633 253.264 365.25 254.213 364.448 254.784C363.257 255.6 361.639 255.885 360.6 256.967Z" fill="#F2AC1F"/>
<path opacity="0.1" d="M364.989 366.685C363.351 369.579 361.026 371.985 358.237 373.671C355.447 375.357 352.288 376.267 349.064 376.313C347.318 376.361 345.583 376.029 343.968 375.338C339.897 373.467 337.597 368.835 336.744 364.283C335.89 359.731 336.158 355.033 335.552 350.435C335.068 346.772 334.036 343.215 333.501 339.559C332.189 330.515 334.775 321.583 336.616 312.579C337.062 311.763 337.514 310.953 337.979 310.15C339.294 307.829 340.769 305.612 342.394 303.515C346.216 298.718 351.128 295.028 355.988 291.392H350.892C351.015 291.298 351.16 291.239 351.312 291.222C351.464 291.205 351.617 291.229 351.757 291.293C351.897 291.357 352.019 291.458 352.109 291.586C352.2 291.714 352.257 291.864 352.274 292.022C352.778 296.667 359.065 301.312 360.435 305.824C361.282 308.598 362.301 311.318 362.983 314.145C363.52 316.553 363.928 318.989 364.206 321.444C365.11 328.314 366.011 335.171 366.907 342.014C368.034 350.368 369.003 359.399 364.989 366.685Z" fill="black"/>
<path d="M356.555 279.561L362.702 259.475C363.62 256.469 364.55 253.417 364.658 250.258C364.766 247.1 363.97 243.789 361.849 241.533C360.129 239.708 357.746 238.766 355.708 237.339C350.612 233.762 348.064 227.499 345.407 221.732C342.751 215.966 339.254 209.934 333.457 207.798C332.119 207.307 330.271 207.267 329.673 208.601C329.466 209.155 329.432 209.764 329.577 210.339C330.138 213.405 332.246 215.853 334.081 218.302C337.158 222.449 339.731 227.525 338.992 232.714C338.113 238.859 332.813 243.623 332.176 249.801C331.896 252.521 332.565 255.248 332.558 257.989C332.558 259.687 332.291 261.419 332.654 263.078C333.031 264.361 333.48 265.619 333.998 266.847C334.565 268.831 334.861 270.888 334.877 272.958L336.221 299.076C336.948 313.203 329.59 326.945 331.616 340.88C332.151 344.536 333.183 348.092 333.667 351.755C334.304 356.354 334.004 361.045 334.858 365.604C335.712 370.162 338.043 374.787 342.082 376.658C343.697 377.349 345.433 377.681 347.178 377.634C350.403 377.588 353.562 376.678 356.351 374.991C359.14 373.305 361.466 370.899 363.104 368.006C367.117 360.706 366.149 351.689 365.053 343.368L362.352 322.798C362.075 320.343 361.666 317.906 361.129 315.499C360.454 312.672 359.434 309.951 358.581 307.178C355.848 298.107 353.803 288.572 356.555 279.561Z" fill="#F3C5B6"/>
<path d="M520.194 281.12H388.292C385.488 281.12 383.215 283.488 383.215 286.409V370.056C383.215 372.977 385.488 375.344 388.292 375.344H520.194C522.998 375.344 525.271 372.977 525.271 370.056V286.409C525.271 283.488 522.998 281.12 520.194 281.12Z" fill="#3F3D56"/>
<path opacity="0.2" d="M520.194 281.12H388.292C385.488 281.12 383.215 283.488 383.215 286.409V370.056C383.215 372.977 385.488 375.344 388.292 375.344H520.194C522.998 375.344 525.271 372.977 525.271 370.056V286.409C525.271 283.488 522.998 281.12 520.194 281.12Z" fill="black"/>
<path d="M453.924 332.214C456.035 332.214 457.746 330.431 457.746 328.232C457.746 326.033 456.035 324.251 453.924 324.251C451.813 324.251 450.102 326.033 450.102 328.232C450.102 330.431 451.813 332.214 453.924 332.214Z" fill="white"/>
<path d="M286.304 405.43H294.019C298.242 405.43 302.293 407.178 305.28 410.289C308.266 413.4 309.944 417.619 309.944 422.019V446.643H270.379V422.019C270.379 417.619 272.056 413.4 275.043 410.289C278.03 407.178 282.08 405.43 286.304 405.43Z" fill="#3F3D56"/>
<path opacity="0.1" d="M286.304 405.43H294.019C298.242 405.43 302.293 407.178 305.28 410.289C308.266 413.4 309.944 417.619 309.944 422.019V446.643H270.379V422.019C270.379 417.619 272.056 413.4 275.043 410.289C278.03 407.178 282.08 405.43 286.304 405.43Z" fill="black"/>
<path d="M288.585 414.501C290.333 414.501 291.751 413.024 291.751 411.203C291.751 409.381 290.333 407.905 288.585 407.905C286.836 407.905 285.419 409.381 285.419 411.203C285.419 413.024 286.836 414.501 288.585 414.501Z" fill="#3F3D56"/>
<path d="M288.585 410.38C290.333 410.38 291.751 408.903 291.751 407.082C291.751 405.261 290.333 403.784 288.585 403.784C286.836 403.784 285.419 405.261 285.419 407.082C285.419 408.903 286.836 410.38 288.585 410.38Z" fill="#3F3D56"/>
<path d="M288.585 406.259C290.333 406.259 291.751 404.783 291.751 402.961C291.751 401.14 290.333 399.664 288.585 399.664C286.836 399.664 285.419 401.14 285.419 402.961C285.419 404.783 286.836 406.259 288.585 406.259Z" fill="#3F3D56"/>
<path d="M288.585 402.139C290.333 402.139 291.751 400.662 291.751 398.841C291.751 397.019 290.333 395.543 288.585 395.543C286.836 395.543 285.419 397.019 285.419 398.841C285.419 400.662 286.836 402.139 288.585 402.139Z" fill="#3F3D56"/>
<path d="M288.585 398.018C290.333 398.018 291.751 396.541 291.751 394.72C291.751 392.899 290.333 391.422 288.585 391.422C286.836 391.422 285.419 392.899 285.419 394.72C285.419 396.541 286.836 398.018 288.585 398.018Z" fill="#3F3D56"/>
<path d="M288.585 393.897C290.333 393.897 291.751 392.421 291.751 390.599C291.751 388.778 290.333 387.302 288.585 387.302C286.836 387.302 285.419 388.778 285.419 390.599C285.419 392.421 286.836 393.897 288.585 393.897Z" fill="#3F3D56"/>
<path d="M288.585 389.777C290.333 389.777 291.751 388.3 291.751 386.479C291.751 384.657 290.333 383.181 288.585 383.181C286.836 383.181 285.419 384.657 285.419 386.479C285.419 388.3 286.836 389.777 288.585 389.777Z" fill="#3F3D56"/>
<path d="M293.33 391.422C295.079 391.422 296.496 389.946 296.496 388.124C296.496 386.303 295.079 384.827 293.33 384.827C291.582 384.827 290.164 386.303 290.164 388.124C290.164 389.946 291.582 391.422 293.33 391.422Z" fill="#3F3D56"/>
<path d="M296.497 389.777C298.245 389.777 299.663 388.3 299.663 386.479C299.663 384.657 298.245 383.181 296.497 383.181C294.748 383.181 293.331 384.657 293.331 386.479C293.331 388.3 294.748 389.777 296.497 389.777Z" fill="#3F3D56"/>
<path d="M299.663 388.124C301.411 388.124 302.829 386.648 302.829 384.827C302.829 383.005 301.411 381.529 299.663 381.529C297.914 381.529 296.496 383.005 296.496 384.827C296.496 386.648 297.914 388.124 299.663 388.124Z" fill="#3F3D56"/>
<path d="M288.585 385.649C290.333 385.649 291.751 384.173 291.751 382.351C291.751 380.53 290.333 379.054 288.585 379.054C286.836 379.054 285.419 380.53 285.419 382.351C285.419 384.173 286.836 385.649 288.585 385.649Z" fill="#3F3D56"/>
<path d="M288.585 381.529C290.333 381.529 291.751 380.052 291.751 378.231C291.751 376.41 290.333 374.933 288.585 374.933C286.836 374.933 285.419 376.41 285.419 378.231C285.419 380.052 286.836 381.529 288.585 381.529Z" fill="#3F3D56"/>
<path d="M288.585 377.408C290.333 377.408 291.751 375.932 291.751 374.11C291.751 372.289 290.333 370.812 288.585 370.812C286.836 370.812 285.419 372.289 285.419 374.11C285.419 375.932 286.836 377.408 288.585 377.408Z" fill="#3F3D56"/>
<path d="M288.585 373.287C290.333 373.287 291.751 371.811 291.751 369.99C291.751 368.168 290.333 366.692 288.585 366.692C286.836 366.692 285.419 368.168 285.419 369.99C285.419 371.811 286.836 373.287 288.585 373.287Z" fill="#3F3D56"/>
<path d="M301.701 359.353C300.917 359.472 300.127 359.559 299.338 359.612C300.072 358.944 300.754 358.216 301.376 357.435C300.935 356.05 300.291 354.745 299.465 353.567C298.68 354.026 297.813 354.311 296.917 354.403C296.133 354.522 295.343 354.615 294.554 354.668C295.615 353.616 296.625 352.509 297.579 351.35C295.289 349.205 292.361 347.944 289.285 347.778C286.209 347.612 283.171 348.552 280.681 350.44C278.191 352.329 276.398 355.05 275.604 358.15C274.81 361.25 275.062 364.541 276.318 367.47C277.574 370.4 279.758 372.791 282.505 374.244C285.251 375.697 288.393 376.123 291.405 375.451C294.417 374.779 297.116 373.05 299.051 370.553C300.985 368.057 302.038 364.943 302.032 361.735C302.032 360.927 301.964 360.121 301.828 359.326L301.701 359.353Z" fill="#9800FF"/>
<path d="M312.282 375.736C311.473 376.252 310.563 376.569 309.619 376.665C308.836 376.784 308.046 376.871 307.256 376.924C308.095 376.139 308.879 375.292 309.6 374.389C307.691 373.871 305.665 374.112 303.919 375.067C302.172 376.022 300.83 377.621 300.155 379.552C299.48 381.482 299.52 383.606 300.268 385.507C301.016 387.408 302.418 388.951 304.2 389.832C305.982 390.714 308.016 390.872 309.903 390.275C311.791 389.678 313.397 388.369 314.407 386.604C315.417 384.84 315.76 382.746 315.367 380.732C314.974 378.718 313.874 376.93 312.282 375.716V375.736Z" fill="#9800FF"/>
<path d="M283.832 391.422C285.581 391.422 286.999 389.946 286.999 388.124C286.999 386.303 285.581 384.827 283.832 384.827C282.084 384.827 280.666 386.303 280.666 388.124C280.666 389.946 282.084 391.422 283.832 391.422Z" fill="#3F3D56"/>
<path d="M280.666 389.777C282.415 389.777 283.832 388.3 283.832 386.479C283.832 384.657 282.415 383.181 280.666 383.181C278.918 383.181 277.5 384.657 277.5 386.479C277.5 388.3 278.918 389.777 280.666 389.777Z" fill="#3F3D56"/>
<path d="M277.5 388.124C279.249 388.124 280.666 386.648 280.666 384.827C280.666 383.005 279.249 381.529 277.5 381.529C275.752 381.529 274.334 383.005 274.334 384.827C274.334 386.648 275.752 388.124 277.5 388.124Z" fill="#3F3D56"/>
<path d="M264.881 375.736C265.689 376.253 266.6 376.57 267.544 376.665C268.327 376.784 269.117 376.871 269.907 376.924C269.066 376.141 268.282 375.294 267.563 374.389C269.472 373.871 271.498 374.112 273.244 375.067C274.991 376.022 276.333 377.621 277.008 379.552C277.683 381.482 277.643 383.606 276.895 385.507C276.146 387.408 274.744 388.951 272.963 389.832C271.181 390.714 269.147 390.872 267.26 390.275C265.372 389.678 263.766 388.369 262.756 386.604C261.746 384.84 261.403 382.746 261.796 380.732C262.189 378.718 263.289 376.93 264.881 375.716V375.736Z" fill="#9800FF"/>
<path d="M286.304 407.905H294.019C298.242 407.905 302.293 409.653 305.28 412.764C308.266 415.875 309.944 420.094 309.944 424.494V446.305C309.944 447.051 309.66 447.766 309.153 448.294C308.646 448.822 307.959 449.118 307.243 449.118H273.08C272.363 449.118 271.676 448.822 271.17 448.294C270.663 447.766 270.379 447.051 270.379 446.305V424.494C270.379 420.094 272.056 415.875 275.043 412.764C278.03 409.653 282.08 407.905 286.304 407.905Z" fill="#3F3D56"/>
<g opacity="0.1">
<path opacity="0.1" d="M301.943 360.255C301.623 360.612 301.282 360.949 300.924 361.264C301.287 361.264 301.644 361.204 302.007 361.164C301.994 360.859 301.975 360.554 301.943 360.255Z" fill="#7A33D6"/>
<path opacity="0.1" d="M296.172 356.314C296.968 356.261 297.751 356.174 298.541 356.055C299.25 355.961 299.943 355.765 300.599 355.471C300.277 354.808 299.906 354.171 299.491 353.567C299.094 353.818 298.665 354.008 298.216 354.131C297.592 354.914 296.908 355.644 296.172 356.314Z" fill="#7A33D6"/>
<path opacity="0.1" d="M276.711 363.394C276.706 360.878 277.352 358.408 278.582 356.243C279.812 354.078 281.58 352.298 283.7 351.092C285.819 349.886 288.211 349.297 290.625 349.388C293.038 349.479 295.384 350.246 297.414 351.609L297.618 351.384C296.293 350.156 294.748 349.213 293.072 348.61C291.395 348.007 289.621 347.755 287.851 347.869C286.081 347.984 284.35 348.462 282.759 349.276C281.167 350.09 279.745 351.224 278.576 352.613C277.407 354.002 276.514 355.618 275.947 357.369C275.38 359.119 275.151 360.969 275.274 362.812C275.397 364.655 275.868 366.454 276.661 368.106C277.454 369.758 278.554 371.23 279.896 372.438C277.835 369.914 276.706 366.707 276.711 363.394Z" fill="#7A33D6"/>
</g>
<g opacity="0.1">
<path opacity="0.1" d="M307.256 378.569C308.046 378.516 308.836 378.43 309.619 378.311C310.564 378.218 311.475 377.9 312.282 377.382C313.176 378.068 313.922 378.942 314.471 379.948C315.02 380.954 315.359 382.069 315.467 383.221C315.498 382.932 315.513 382.642 315.512 382.352C315.518 381.063 315.233 379.791 314.679 378.638C314.126 377.485 313.32 376.484 312.327 375.716C311.518 376.232 310.607 376.549 309.664 376.645L309.027 376.725C308.483 377.386 307.891 378.003 307.256 378.569Z" fill="black"/>
<path opacity="0.1" d="M307.574 375.756C307.839 375.759 308.102 375.779 308.364 375.816C308.778 375.358 309.186 374.867 309.6 374.389C308.429 374.063 307.202 374.022 306.013 374.27C304.824 374.517 303.706 375.047 302.745 375.816C301.785 376.586 301.007 377.576 300.472 378.709C299.938 379.843 299.661 381.089 299.663 382.352C299.663 382.63 299.663 382.902 299.701 383.174C299.897 381.141 300.811 379.256 302.266 377.885C303.721 376.514 305.613 375.755 307.574 375.756Z" fill="black"/>
</g>
<g opacity="0.1">
<path opacity="0.1" d="M269.907 378.569C269.117 378.516 268.327 378.43 267.544 378.311C266.599 378.219 265.688 377.901 264.881 377.382C263.987 378.068 263.241 378.942 262.692 379.948C262.143 380.954 261.804 382.069 261.696 383.221C261.665 382.932 261.65 382.642 261.651 382.352C261.645 381.063 261.93 379.791 262.484 378.638C263.037 377.485 263.843 376.484 264.836 375.716C265.645 376.233 266.555 376.55 267.499 376.645L268.136 376.725C268.676 377.39 269.269 378.007 269.907 378.569Z" fill="black"/>
<path opacity="0.1" d="M269.589 375.756C269.322 375.759 269.056 375.779 268.792 375.816C268.385 375.358 267.977 374.867 267.563 374.389C268.734 374.063 269.961 374.022 271.15 374.27C272.339 374.517 273.457 375.047 274.417 375.816C275.378 376.586 276.156 377.576 276.691 378.709C277.225 379.843 277.502 381.089 277.5 382.352C277.5 382.63 277.5 382.902 277.462 383.174C277.266 381.141 276.352 379.256 274.897 377.885C273.442 376.514 271.55 375.755 269.589 375.756Z" fill="black"/>
</g>
<path d="M244.687 119.207H100.72V177.599H244.687V119.207Z" fill="url(#paint1_linear)"/>
<path d="M329.411 119.207H108.364C104.142 119.207 100.72 122.772 100.72 127.17V169.637C100.72 174.035 104.142 177.599 108.364 177.599H329.411C333.633 177.599 337.056 174.035 337.056 169.637V127.17C337.056 122.772 333.633 119.207 329.411 119.207Z" stroke="#231942" stroke-width="9" stroke-miterlimit="10"/>
<path d="M230.201 145.278C229.736 142.836 228.553 140.604 226.816 138.893C225.08 137.182 222.875 136.075 220.509 135.726C218.142 135.377 215.729 135.802 213.605 136.944C211.48 138.086 209.749 139.888 208.651 142.099C206.299 142.358 204.132 143.548 202.598 145.423C201.064 147.299 200.28 149.716 200.408 152.176C200.537 154.636 201.567 156.951 203.287 158.642C205.008 160.333 207.286 161.272 209.651 161.263H229.666C231.711 161.258 233.67 160.407 235.113 158.898C236.556 157.388 237.365 155.344 237.362 153.214C237.37 151.188 236.632 149.236 235.3 147.76C233.968 146.283 232.143 145.395 230.201 145.278ZM221.353 150.009V156.1H216.423V150.009H211.193L218.888 141.987L226.583 150.009H221.353Z" fill="white"/>
<defs>
<linearGradient id="paint0_linear" x1="461.479" y1="469.993" x2="461.479" y2="130.487" gradientUnits="userSpaceOnUse">
<stop stop-color="#808080" stop-opacity="0.25"/>
<stop offset="0.54" stop-color="#808080" stop-opacity="0.12"/>
<stop offset="1" stop-color="#808080" stop-opacity="0.1"/>
</linearGradient>
<linearGradient id="paint1_linear" x1="4" y1="148" x2="249.5" y2="154" gradientUnits="userSpaceOnUse">
<stop stop-color="#48139F"/>
<stop offset="1" stop-color="#9800FF"/>
</linearGradient>
</defs>
</svg>
