<svg width="95" height="95" viewBox="0 0 95 95" fill="none" xmlns="http://www.w3.org/2000/svg">
<path fill-rule="evenodd" clip-rule="evenodd" d="M40.2567 75.2351C40.2567 74.5231 40.2316 72.639 40.2172 70.1367C32.0865 71.9472 30.371 66.1183 30.371 66.1183C29.0413 62.6556 27.1249 61.7338 27.1249 61.7338C24.4709 59.8736 27.3258 59.9123 27.3258 59.9123C30.2598 60.1238 31.803 63.0015 31.803 63.0015C34.4103 67.5811 38.6435 66.26 40.3105 65.4927C40.5761 63.5553 41.3316 62.2342 42.166 61.4854C35.6754 60.7292 28.8511 58.157 28.8511 46.6722C28.8511 43.4008 29.9906 40.7255 31.8604 38.6299C31.5608 37.8718 30.5559 34.8249 32.1475 30.698C32.1475 30.698 34.6024 29.8921 40.1849 33.7706C42.5159 33.1064 45.0174 32.7716 47.5045 32.7605C49.9862 32.7716 52.4859 33.1064 54.8223 33.7706C60.4012 29.8921 62.8525 30.698 62.8525 30.698C64.4477 34.8231 63.4446 37.87 63.1432 38.6299C65.0166 40.7255 66.1471 43.4008 66.1471 46.6722C66.1471 58.1864 59.312 60.72 52.7999 61.4615C53.8515 62.387 54.7846 64.2158 54.7846 67.0125C54.7846 71.0199 54.7469 74.2526 54.7469 75.2351C54.7469 76.0373 55.2745 76.9683 56.7585 76.6758C68.3632 72.7052 76.7308 61.478 76.7308 48.2416C76.7308 31.6878 63.642 18.2693 47.4991 18.2693C31.358 18.2693 18.2692 31.6878 18.2692 48.2416C18.271 61.4817 26.6457 72.7163 38.2612 76.6795C39.7219 76.9536 40.2567 76.0281 40.2567 75.2351Z" fill="white" fill-opacity="0.9"/>
</svg>
