<svg width="67" height="67" viewBox="0 0 67 67" fill="none" xmlns="http://www.w3.org/2000/svg">
<path fill-rule="evenodd" clip-rule="evenodd" d="M50.837 48.137V36.425C50.837 30.15 47.487 27.23 43.021 27.23C39.417 27.23 37.802 29.213 36.902 30.604V27.71H30.112C30.202 29.627 30.112 48.137 30.112 48.137H36.902V36.729C36.902 36.12 36.946 35.51 37.126 35.074C37.616 33.854 38.733 32.591 40.608 32.591C43.066 32.591 44.048 34.464 44.048 37.209V48.138H50.837V48.137ZM22.959 24.922C25.326 24.922 26.801 23.352 26.801 21.391C26.757 19.388 25.326 17.863 23.004 17.863C20.682 17.863 19.163 19.387 19.163 21.391C19.163 23.352 20.637 24.922 22.916 24.922H22.959ZM34 64C17.432 64 4 50.568 4 34C4 17.431 17.432 4 34 4C50.568 4 64 17.431 64 34C64 50.568 50.568 64 34 64ZM26.354 48.137V27.71H19.565V48.137H26.354Z" fill="white" fill-opacity="0.9"/>
</svg>
