<svg width="112" height="34" viewBox="0 0 112 34" fill="none" xmlns="http://www.w3.org/2000/svg">
<path d="M1.68893 0L100.48 6.43096C106.542 6.8256 111.137 12.06 110.742 18.1223L110.482 22.1138C110.088 28.1761 104.853 32.7707 98.7909 32.376L10.9768 26.6596C4.91446 26.265 0.31991 21.0306 0.714546 14.9683L1.68893 0Z" fill="url(#paint0_linear)" fill-opacity="0.9"/>
<g filter="url(#filter0_b)">
<path d="M1 0H100C106.075 0 111 4.92487 111 11V15C111 21.0751 106.075 26 100 26H12C5.92487 26 1 21.0751 1 15V0Z" fill="#EBEBEB" fill-opacity="0.4"/>
<path d="M1.05 0.05H100C106.048 0.05 110.95 4.95248 110.95 11V15C110.95 21.0475 106.048 25.95 100 25.95H12C5.95248 25.95 1.05 21.0475 1.05 15V0.05Z" stroke="#A9A9A9" stroke-width="0.1"/>
</g>
<path d="M13.576 14.8C13.576 13.976 13.756 13.24 14.116 12.592C14.476 11.936 14.968 11.428 15.592 11.068C16.216 10.7 16.912 10.516 17.68 10.516C18.616 10.516 19.416 10.74 20.08 11.188C20.752 11.628 21.24 12.252 21.544 13.06H20.56C20.32 12.492 19.952 12.048 19.456 11.728C18.968 11.408 18.376 11.248 17.68 11.248C17.064 11.248 16.508 11.392 16.012 11.68C15.524 11.968 15.14 12.384 14.86 12.928C14.58 13.464 14.44 14.088 14.44 14.8C14.44 15.512 14.58 16.136 14.86 16.672C15.14 17.208 15.524 17.62 16.012 17.908C16.508 18.196 17.064 18.34 17.68 18.34C18.376 18.34 18.968 18.184 19.456 17.872C19.952 17.552 20.32 17.112 20.56 16.552H21.544C21.24 17.352 20.752 17.972 20.08 18.412C19.408 18.852 18.608 19.072 17.68 19.072C16.912 19.072 16.216 18.892 15.592 18.532C14.968 18.164 14.476 17.656 14.116 17.008C13.756 16.36 13.576 15.624 13.576 14.8ZM29.8658 10.612V19H29.0258V15.076H24.4778V19H23.6378V10.612H24.4778V14.38H29.0258V10.612H29.8658ZM33.0423 10.612V19H32.2023V10.612H33.0423ZM39.4325 14.2V14.908H34.7645V14.2H39.4325ZM42.8472 18.316H45.8592V19H42.0072V10.612H42.8472V18.316ZM48.282 10.612V15.892C48.282 16.724 48.478 17.34 48.87 17.74C49.27 18.14 49.814 18.34 50.502 18.34C51.19 18.34 51.726 18.144 52.11 17.752C52.502 17.352 52.698 16.732 52.698 15.892V10.612H53.538V15.88C53.538 16.944 53.254 17.744 52.686 18.28C52.126 18.816 51.394 19.084 50.49 19.084C49.586 19.084 48.85 18.816 48.282 18.28C47.722 17.744 47.442 16.944 47.442 15.88V10.612H48.282ZM55.4476 14.8C55.4476 13.976 55.6276 13.24 55.9876 12.592C56.3476 11.936 56.8396 11.428 57.4636 11.068C58.0876 10.7 58.7836 10.516 59.5516 10.516C60.4876 10.516 61.2876 10.74 61.9516 11.188C62.6236 11.628 63.1116 12.252 63.4156 13.06H62.4316C62.1916 12.492 61.8236 12.048 61.3276 11.728C60.8396 11.408 60.2476 11.248 59.5516 11.248C58.9356 11.248 58.3796 11.392 57.8836 11.68C57.3956 11.968 57.0116 12.384 56.7316 12.928C56.4516 13.464 56.3116 14.088 56.3116 14.8C56.3116 15.512 56.4516 16.136 56.7316 16.672C57.0116 17.208 57.3956 17.62 57.8836 17.908C58.3796 18.196 58.9356 18.34 59.5516 18.34C60.2476 18.34 60.8396 18.184 61.3276 17.872C61.8236 17.552 62.1916 17.112 62.4316 16.552H63.4156C63.1116 17.352 62.6236 17.972 61.9516 18.412C61.2796 18.852 60.4796 19.072 59.5516 19.072C58.7836 19.072 58.0876 18.892 57.4636 18.532C56.8396 18.164 56.3476 17.656 55.9876 17.008C55.6276 16.36 55.4476 15.624 55.4476 14.8ZM71.7063 10.612C72.6343 10.612 73.4303 10.78 74.0943 11.116C74.7583 11.452 75.2663 11.936 75.6183 12.568C75.9703 13.2 76.1463 13.952 76.1463 14.824C76.1463 15.688 75.9703 16.436 75.6183 17.068C75.2663 17.692 74.7583 18.172 74.0943 18.508C73.4303 18.836 72.6343 19 71.7063 19H69.2223V10.612H71.7063ZM71.7063 18.304C72.8743 18.304 73.7623 18 74.3703 17.392C74.9863 16.776 75.2943 15.92 75.2943 14.824C75.2943 13.72 74.9863 12.86 74.3703 12.244C73.7623 11.62 72.8743 11.308 71.7063 11.308H70.0623V18.304H71.7063ZM78.955 10.612V19H78.115V10.612H78.955ZM82.1172 11.296V14.428H85.2972V15.124H82.1172V18.304H85.6572V19H81.2772V10.6H85.6572V11.296H82.1172ZM93.0963 13.024C93.0963 13.744 92.8603 14.324 92.3883 14.764C91.9163 15.204 91.2083 15.424 90.2643 15.424H88.5723V19H87.7323V10.612H90.2643C91.2003 10.612 91.9043 10.832 92.3763 11.272C92.8563 11.712 93.0963 12.296 93.0963 13.024ZM90.2643 14.704C91.5763 14.704 92.2323 14.144 92.2323 13.024C92.2323 12.464 92.0763 12.04 91.7643 11.752C91.4523 11.464 90.9523 11.32 90.2643 11.32H88.5723V14.704H90.2643Z" fill="white"/>
<defs>
<filter id="filter0_b" x="-4" y="-5" width="120" height="36" filterUnits="userSpaceOnUse" color-interpolation-filters="sRGB">
<feFlood flood-opacity="0" result="BackgroundImageFix"/>
<feGaussianBlur in="BackgroundImage" stdDeviation="2.5"/>
<feComposite in2="SourceAlpha" operator="in" result="effect1_backgroundBlur"/>
<feBlend mode="normal" in="SourceGraphic" in2="effect1_backgroundBlur" result="shape"/>
</filter>
<linearGradient id="paint0_linear" x1="43" y1="42.5" x2="90" y2="3.58368e-06" gradientUnits="userSpaceOnUse">
<stop stop-color="#7420FF"/>
<stop offset="1" stop-color="#F2AC1F"/>
</linearGradient>
</defs>
</svg>
