<svg width="221" height="69" viewBox="0 0 221 69" fill="none" xmlns="http://www.w3.org/2000/svg">
<path d="M64.264 25.748L57.946 37.968V44H53.5V37.968L47.182 25.748H52.226L55.762 33.392L59.272 25.748H64.264ZM80.3814 29.492V44H75.9354V42.024C75.4847 42.6653 74.8694 43.1853 74.0894 43.584C73.3267 43.9653 72.4774 44.156 71.5414 44.156C70.432 44.156 69.4527 43.9133 68.6034 43.428C67.754 42.9253 67.0954 42.206 66.6274 41.27C66.1594 40.334 65.9254 39.2333 65.9254 37.968V29.492H70.3454V37.37C70.3454 38.3407 70.5967 39.0947 71.0994 39.632C71.602 40.1693 72.278 40.438 73.1274 40.438C73.994 40.438 74.6787 40.1693 75.1814 39.632C75.684 39.0947 75.9354 38.3407 75.9354 37.37V29.492H80.3814ZM92.4149 29.336C94.1136 29.336 95.4656 29.8907 96.4709 31C97.4936 32.092 98.0049 33.6 98.0049 35.524V44H93.5849V36.122C93.5849 35.1513 93.3336 34.3973 92.8309 33.86C92.3282 33.3227 91.6522 33.054 90.8029 33.054C89.9536 33.054 89.2776 33.3227 88.7749 33.86C88.2722 34.3973 88.0209 35.1513 88.0209 36.122V44H83.5749V29.492H88.0209V31.416C88.4716 30.7747 89.0782 30.272 89.8409 29.908C90.6036 29.5267 91.4616 29.336 92.4149 29.336ZM106.606 29.284C107.629 29.284 108.522 29.492 109.284 29.908C110.064 30.324 110.662 30.87 111.078 31.546V29.492H115.524V43.974C115.524 45.3087 115.256 46.5133 114.718 47.588C114.198 48.68 113.392 49.5467 112.3 50.188C111.226 50.8293 109.882 51.15 108.27 51.15C106.121 51.15 104.379 50.6387 103.044 49.616C101.71 48.6107 100.947 47.2413 100.756 45.508H105.15C105.289 46.0627 105.618 46.496 106.138 46.808C106.658 47.1373 107.3 47.302 108.062 47.302C108.981 47.302 109.709 47.0333 110.246 46.496C110.801 45.976 111.078 45.1353 111.078 43.974V41.92C110.645 42.596 110.047 43.1507 109.284 43.584C108.522 44 107.629 44.208 106.606 44.208C105.41 44.208 104.327 43.9047 103.356 43.298C102.386 42.674 101.614 41.7987 101.042 40.672C100.488 39.528 100.21 38.2107 100.21 36.72C100.21 35.2293 100.488 33.9207 101.042 32.794C101.614 31.6673 102.386 30.8007 103.356 30.194C104.327 29.5873 105.41 29.284 106.606 29.284ZM111.078 36.746C111.078 35.6367 110.766 34.7613 110.142 34.12C109.536 33.4787 108.79 33.158 107.906 33.158C107.022 33.158 106.268 33.4787 105.644 34.12C105.038 34.744 104.734 35.6107 104.734 36.72C104.734 37.8293 105.038 38.7133 105.644 39.372C106.268 40.0133 107.022 40.334 107.906 40.334C108.79 40.334 109.536 40.0133 110.142 39.372C110.766 38.7307 111.078 37.8553 111.078 36.746ZM123.497 34.848C123.497 33.0453 123.887 31.442 124.667 30.038C125.447 28.6167 126.53 27.516 127.917 26.736C129.321 25.9387 130.907 25.54 132.675 25.54C134.841 25.54 136.696 26.112 138.239 27.256C139.781 28.4 140.813 29.96 141.333 31.936H136.445C136.081 31.1733 135.561 30.5927 134.885 30.194C134.226 29.7953 133.472 29.596 132.623 29.596C131.253 29.596 130.144 30.0727 129.295 31.026C128.445 31.9793 128.021 33.2533 128.021 34.848C128.021 36.4427 128.445 37.7167 129.295 38.67C130.144 39.6233 131.253 40.1 132.623 40.1C133.472 40.1 134.226 39.9007 134.885 39.502C135.561 39.1033 136.081 38.5227 136.445 37.76H141.333C140.813 39.736 139.781 41.296 138.239 42.44C136.696 43.5667 134.841 44.13 132.675 44.13C130.907 44.13 129.321 43.74 127.917 42.96C126.53 42.1627 125.447 41.062 124.667 39.658C123.887 38.254 123.497 36.6507 123.497 34.848ZM152.973 29.336C154.637 29.336 155.972 29.8907 156.977 31C157.983 32.092 158.485 33.6 158.485 35.524V44H154.065V36.122C154.065 35.1513 153.814 34.3973 153.311 33.86C152.809 33.3227 152.133 33.054 151.283 33.054C150.434 33.054 149.758 33.3227 149.255 33.86C148.753 34.3973 148.501 35.1513 148.501 36.122V44H144.055V24.76H148.501V31.442C148.952 30.8007 149.567 30.2893 150.347 29.908C151.127 29.5267 152.003 29.336 152.973 29.336ZM163.811 27.984C163.031 27.984 162.39 27.7587 161.887 27.308C161.402 26.84 161.159 26.268 161.159 25.592C161.159 24.8987 161.402 24.3267 161.887 23.876C162.39 23.408 163.031 23.174 163.811 23.174C164.574 23.174 165.198 23.408 165.683 23.876C166.186 24.3267 166.437 24.8987 166.437 25.592C166.437 26.268 166.186 26.84 165.683 27.308C165.198 27.7587 164.574 27.984 163.811 27.984ZM166.021 29.492V44H161.575V29.492H166.021Z" fill="#21155C"/>
<rect width="14" height="50" rx="7" fill="#7420FF"/>
<rect x="21" y="19" width="14" height="50" rx="7" fill="#F2AC1F"/>
</svg>
