<svg width="423" height="470" viewBox="0 0 423 470" fill="none" xmlns="http://www.w3.org/2000/svg">
<g clip-path="url(#clip0)">
<path d="M238.098 15.2665L131.601 66.9937C128.196 68.6474 126.777 72.7478 128.43 76.1524L152.816 126.359C154.064 128.928 156.774 130.454 159.618 130.188C162.46 129.923 164.842 127.922 165.593 125.166C167.164 119.399 171.243 114.78 176.766 112.486C185.605 108.823 195.86 112.313 200.622 120.602C203.311 125.283 203.923 130.683 202.346 135.807C200.767 140.938 197.24 145.053 192.415 147.397C187.451 149.808 181.681 149.953 176.584 147.795C173.954 146.681 170.908 147.316 168.943 149.386C166.976 151.457 166.5 154.531 167.748 157.1L168.533 158.717C162.598 157.691 156.336 158.274 150.441 160.716C145.689 162.685 141.567 165.659 138.295 169.38L119.681 131.057C118.027 127.652 113.927 126.233 110.522 127.887L4.02549 179.614C-12.9702 187.869 -20.0812 208.412 -11.8262 225.408L91.6281 438.401C99.8832 455.397 120.426 462.508 137.422 454.253L350.416 350.799C367.411 342.544 374.523 322.001 366.267 305.005L359.866 291.826C358.213 288.422 354.112 287.002 350.708 288.656C347.303 290.31 345.884 294.41 347.537 297.815L353.938 310.993C358.891 321.191 354.625 333.517 344.427 338.47L244.095 387.203L222.703 343.161C221.455 340.592 218.745 339.066 215.902 339.331C213.058 339.596 210.677 341.598 209.927 344.354C208.472 349.694 204.791 354.14 199.827 356.551C195.002 358.894 189.586 359.122 184.578 357.192C179.576 355.264 175.709 351.444 173.692 346.436C170.12 337.568 173.717 327.351 182.061 322.668C187.276 319.742 193.431 319.394 198.935 321.724C201.565 322.838 204.609 322.203 206.577 320.133C208.543 318.063 209.02 314.989 207.772 312.42L186.38 268.378L218.559 252.748C218.792 257.064 219.877 261.338 221.807 265.313C225.771 273.473 233.019 279.685 241.693 282.355C250.489 285.063 259.745 284.019 267.76 279.416C282.005 271.233 288.002 253.613 281.71 238.429C279.74 233.677 276.768 229.554 273.046 226.283L305.205 210.663L320.589 242.335C322.243 245.74 326.343 247.159 329.748 245.506C333.153 243.852 334.572 239.752 332.918 236.347L314.54 198.51C312.887 195.105 308.786 193.686 305.382 195.339L304.788 195.628C305.933 188.911 304.983 181.919 301.972 175.72C300.042 171.746 297.353 168.25 294.105 165.399L332.449 146.775C335.854 145.121 337.273 141.021 335.619 137.616L283.891 31.1182C275.636 14.1225 255.093 7.01146 238.098 15.2665ZM0.50292 219.419C-4.45011 209.222 -0.183473 196.896 10.0139 191.943L110.346 143.21L131.738 187.252C132.986 189.821 135.696 191.347 138.54 191.081C141.381 190.816 143.763 188.815 144.515 186.059C146.085 180.293 150.161 175.671 155.688 173.379C164.526 169.717 174.782 173.206 179.544 181.495C182.233 186.177 182.845 191.577 181.267 196.702C179.688 201.832 176.161 205.948 171.336 208.291C166.373 210.702 160.603 210.847 155.507 208.689C152.875 207.575 149.83 208.21 147.865 210.281C145.898 212.351 145.422 215.425 146.67 217.994L168.062 262.036L135.882 277.666C135.65 273.35 134.565 269.076 132.634 265.101C128.671 256.941 121.423 250.73 112.748 248.059C103.952 245.352 94.6959 246.397 86.6828 250.997C72.437 259.181 66.4397 276.801 72.7318 291.985C74.7008 296.736 77.6743 300.86 81.3954 304.13L49.2356 319.751L0.50292 219.419ZM175.352 310.715C161.02 318.759 154.84 336.317 160.978 351.556C164.43 360.127 171.061 366.67 179.649 369.98C188.117 373.244 197.655 372.842 205.815 368.879C209.789 366.948 213.284 364.26 216.135 361.011L231.766 393.191L131.434 441.924C121.236 446.877 108.91 442.61 103.957 432.413L55.2243 332.081L99.2663 310.689C101.835 309.441 103.361 306.731 103.096 303.887C102.83 301.044 100.828 298.663 98.0731 297.912C92.3071 296.342 87.6858 292.269 85.3935 286.739C81.7306 277.9 85.22 267.645 93.5091 262.884C98.1909 260.195 103.591 259.582 108.716 261.16C113.845 262.739 117.961 266.266 120.305 271.091C122.716 276.055 122.861 281.825 120.703 286.921C119.59 289.551 120.224 292.596 122.294 294.562C124.365 296.529 127.439 297.005 130.008 295.757L174.05 274.365L189.67 306.525C184.723 306.794 179.836 308.196 175.352 310.715ZM256.368 232.501C262.133 234.072 266.755 238.144 269.047 243.675C272.71 252.513 269.221 262.768 260.932 267.53C256.25 270.216 250.85 270.832 245.725 269.254C240.595 267.675 236.48 264.148 234.136 259.323C231.725 254.359 231.58 248.589 233.737 243.492C234.851 240.862 234.217 237.817 232.146 235.851C230.076 233.884 227.002 233.408 224.433 234.656L180.392 256.047L164.762 223.868C169.078 223.636 173.352 222.551 177.326 220.62C183.525 217.609 188.595 212.7 191.847 206.714L192.135 207.308C193.789 210.713 197.889 212.132 201.294 210.478L239.618 191.863C239.888 196.811 241.291 201.697 243.808 206.182C246.932 211.748 251.493 216.076 256.792 218.939L255.175 219.724C252.606 220.972 251.08 223.682 251.346 226.526C251.611 229.369 253.612 231.75 256.368 232.501ZM320.295 137.439L276.254 158.831C273.685 160.078 272.159 162.788 272.425 165.632C272.69 168.475 274.692 170.856 277.447 171.607C282.787 173.061 287.232 176.743 289.643 181.706C291.987 186.531 292.214 191.947 290.284 196.955C288.356 201.958 284.536 205.825 279.528 207.842C270.661 211.414 260.443 207.815 255.761 199.473C252.83 194.252 252.487 188.102 254.816 182.598C255.93 179.968 255.295 176.923 253.225 174.957C251.154 172.99 248.08 172.514 245.512 173.762L201.47 195.153L185.84 162.974C190.156 162.741 194.43 161.656 198.405 159.726C206.565 155.762 212.777 148.514 215.447 139.84C218.155 131.044 217.111 121.787 212.508 113.775C204.325 99.5288 186.704 93.5314 171.521 99.8236C166.767 101.793 162.646 104.766 159.375 108.488L143.755 76.328L244.086 27.5956C254.283 22.6426 266.609 26.9092 271.562 37.1066L320.295 137.439Z" fill="#E8E8E8"/>
<path d="M337.231 260.916C335.609 261.703 334.339 263.135 333.75 264.839C333.16 266.542 333.273 268.453 334.06 270.074C334.848 271.696 336.28 272.966 337.983 273.555C339.687 274.145 341.598 274.032 343.219 273.245C344.84 272.457 346.11 271.025 346.7 269.321C347.296 267.615 347.177 265.707 346.389 264.086C345.602 262.465 344.176 261.192 342.466 260.605C340.763 260.015 338.858 260.125 337.231 260.916Z" fill="#E8E8E8"/>
</g>
<defs>
<clipPath id="clip0">
<rect width="350.886" height="350.886" fill="white" transform="translate(-46.7046 153.599) rotate(-25.9065)"/>
</clipPath>
</defs>
</svg>
