<svg width="121" height="122" viewBox="0 0 121 122" fill="none" xmlns="http://www.w3.org/2000/svg">
<ellipse cx="60.5" cy="61" rx="60.5" ry="61" fill="url(#paint0_linear)"/>
<path d="M84.5122 67.335C83.9951 67.335 83.576 66.8963 83.576 66.3549V53.7361H36.424V66.3549C36.424 66.8961 36.0049 67.335 35.4877 67.335C34.9706 67.335 34.5515 66.8963 34.5515 66.3549V52.7561C34.5515 52.2149 34.9706 51.776 35.4877 51.776H84.5121C85.0292 51.776 85.4484 52.2148 85.4484 52.7561V66.3549C85.4484 66.8963 85.0294 67.335 84.5122 67.335Z" fill="white"/>
<path d="M35.4877 77.6763C39.0793 77.6763 41.9909 74.6283 41.9909 70.8684C41.9909 67.1085 39.0793 64.0604 35.4877 64.0604C31.8962 64.0604 28.9846 67.1085 28.9846 70.8684C28.9846 74.6283 31.8962 77.6763 35.4877 77.6763Z" fill="white"/>
<path d="M84.5122 77.6763C88.1038 77.6763 91.0153 74.6283 91.0153 70.8684C91.0153 67.1085 88.1038 64.0604 84.5122 64.0604C80.9206 64.0604 78.0091 67.1085 78.0091 70.8684C78.0091 74.6283 80.9206 77.6763 84.5122 77.6763Z" fill="white"/>
<path d="M60 85.9466C59.4829 85.9466 59.0638 85.5078 59.0638 84.1813V36.7847H60.9361V84.1813C60.9363 85.5078 60.5171 85.9466 60 85.9466Z" fill="white"/>
<path d="M58.6741 61.51L51.6381 54.1441C50.9059 53.3776 50.9059 52.1348 51.6381 51.3682L58.6741 44.0024C59.4064 43.2358 60.5935 43.2358 61.3257 44.0024L68.3617 51.3682C69.094 52.1348 69.094 53.3776 68.3617 54.1441L61.3257 61.51C60.5936 62.2765 59.4064 62.2765 58.6741 61.51Z" fill="white"/>
<path d="M68.3636 51.3702L66.7675 49.6992C66.8587 50.2984 66.6857 50.9334 66.2445 51.3953L57.9201 60.1099C57.8197 60.2149 57.7102 60.3042 57.5951 60.3803L58.676 61.5119C59.4072 62.2774 60.5927 62.2774 61.324 61.5119L68.3636 54.1423C69.0949 53.3769 69.0949 52.1357 68.3636 51.3702Z" fill="white"/>
<path d="M40.1165 58.8879H30.8604C29.8249 58.8879 28.9854 58.009 28.9854 56.925V49.5903C28.9854 48.5063 29.8249 47.6274 30.8604 47.6274H40.1165C41.152 47.6274 41.9915 48.5063 41.9915 49.5903V56.925C41.9915 58.009 41.152 58.8879 40.1165 58.8879Z" fill="white"/>
<path d="M89.1402 58.8879H79.8841C78.8486 58.8879 78.0091 58.009 78.0091 56.925V49.5903C78.0091 48.5063 78.8486 47.6274 79.8841 47.6274H89.1402C90.1757 47.6274 91.0152 48.5063 91.0152 49.5903V56.925C91.0152 58.009 90.1757 58.8879 89.1402 58.8879Z" fill="white"/>
<path d="M67.1282 77.1051H52.8717C51.8362 77.1051 50.9967 76.2262 50.9967 75.1422V69.1302C50.9967 68.0462 51.8362 67.1674 52.8717 67.1674H67.1284C68.1639 67.1674 69.0034 68.0462 69.0034 69.1302V75.1422C69.0032 76.2262 68.1639 77.1051 67.1282 77.1051Z" fill="white"/>
<path d="M38.6722 64.9313C39.2016 65.9164 39.5036 67.0537 39.5036 68.2645C39.5036 72.0244 36.5921 75.0725 33.0005 75.0725C31.8439 75.0725 30.7566 74.7549 29.8156 74.2006C30.93 76.2744 33.053 77.6763 35.4879 77.6763C39.0794 77.6763 41.991 74.6283 41.991 70.8684C41.9909 68.3194 40.6532 66.0979 38.6722 64.9313Z" fill="white"/>
<path d="M87.6957 64.9307C88.2251 65.9158 88.528 67.0536 88.528 68.2646C88.528 72.0244 85.6165 75.0725 82.0249 75.0725C80.8682 75.0725 79.7812 74.7553 78.8401 74.201C79.9546 76.2749 82.0772 77.6764 84.5121 77.6764C88.1036 77.6764 91.0152 74.6284 91.0152 70.8684C91.0152 68.3194 89.6767 66.0974 87.6957 64.9307Z" fill="white"/>
<path d="M40.1191 47.6274H39.5042V54.3238C39.5042 55.4064 38.666 56.2839 37.6319 56.2839H28.9854V56.9276C28.9854 58.0102 29.8236 58.8878 30.8577 58.8878H40.1191C41.1532 58.8878 41.9915 58.0102 41.9915 56.9276V49.5876C41.9915 48.505 41.1532 47.6274 40.1191 47.6274Z" fill="white"/>
<path d="M89.1428 47.6274H88.528V54.3238C88.528 55.4064 87.6896 56.2839 86.6556 56.2839H78.0091V56.9276C78.0091 58.0102 78.8475 58.8878 79.8815 58.8878H89.1428C90.177 58.8878 91.0152 58.0102 91.0152 56.9276V49.5876C91.0152 48.505 90.177 47.6274 89.1428 47.6274Z" fill="white"/>
<path d="M67.1282 93H52.8717C51.8362 93 50.9967 92.1211 50.9967 91.0371V85.0251C50.9967 83.9411 51.8362 83.0623 52.8717 83.0623H67.1284C68.1639 83.0623 69.0034 83.9411 69.0034 85.0251V91.0371C69.0032 92.1211 68.1639 93 67.1282 93Z" fill="white"/>
<path d="M67.1309 83.0623H66.516V88.4359C66.516 89.5185 65.6776 90.396 64.6436 90.396H50.9967V91.0397C50.9967 92.1223 51.835 92.9998 52.8691 92.9998H67.1309C68.165 92.9998 69.0032 92.1223 69.0032 91.0397V85.0224C69.0032 83.9399 68.165 83.0623 67.1309 83.0623Z" fill="white"/>
<path d="M67.1309 67.1674H66.516V72.541C66.516 73.6236 65.6776 74.5011 64.6436 74.5011H50.9967V75.1448C50.9967 76.2274 51.835 77.1049 52.8691 77.1049H67.1309C68.165 77.1049 69.0032 76.2274 69.0032 75.1448V69.1275C69.0032 68.045 68.165 67.1674 67.1309 67.1674Z" fill="white"/>
<path d="M60 38.7282C67.379 38.7282 73.3609 35.8789 73.3609 32.3641C73.3609 28.8493 67.379 26 60 26C52.621 26 46.6391 28.8493 46.6391 32.3641C46.6391 35.8789 52.621 38.7282 60 38.7282Z" fill="white"/>
<path d="M70.6095 28.4962C70.7824 28.9048 70.8735 29.3274 70.8735 29.7603C70.8735 33.2751 64.8916 36.1244 57.5126 36.1244C53.1886 36.1244 49.3451 35.1457 46.9031 33.6283C48.1341 36.5375 53.5298 38.7284 60 38.7284C67.379 38.7284 73.3609 35.879 73.3609 32.3643C73.3609 30.909 72.3348 29.5682 70.6095 28.4962Z" fill="white"/>
<defs>
<linearGradient id="paint0_linear" x1="38" y1="6.5" x2="98.816" y2="106.504" gradientUnits="userSpaceOnUse">
<stop stop-color="#8BB0FF"/>
<stop offset="1" stop-color="#9BE9FF"/>
</linearGradient>
</defs>
</svg>
