<svg width="122" height="122" viewBox="0 0 122 122" fill="none" xmlns="http://www.w3.org/2000/svg">
<circle cx="61" cy="61" r="61" fill="#FF4D91"/>
<circle cx="61" cy="61" r="61" fill="url(#paint0_linear)"/>
<path d="M55.8839 69.9448C55.6648 69.9448 55.4441 69.8707 55.2641 69.72L49.0678 64.5348C48.854 64.3558 48.7311 64.0943 48.7311 63.818C48.7311 63.5423 48.8546 63.2808 49.0678 63.1018L55.2641 57.9166C55.6664 57.5795 56.2708 57.6272 56.6138 58.0227C56.9563 58.4186 56.9082 59.0125 56.5053 59.3492L51.1656 63.818L56.5053 68.2869C56.9082 68.6241 56.9563 69.218 56.6138 69.6134C56.4241 69.8324 56.1548 69.9448 55.8839 69.9448Z" fill="white"/>
<path d="M68.1161 69.9448C67.8452 69.9448 67.5759 69.8324 67.3867 69.6134C67.0437 69.218 67.0923 68.6241 67.4947 68.2869L72.8344 63.818L67.4947 59.3492C67.0923 59.0125 67.0437 58.4186 67.3867 58.0227C67.7292 57.6272 68.3341 57.5795 68.7359 57.9166L74.9322 63.1018C75.146 63.2808 75.2689 63.5423 75.2689 63.818C75.2689 64.0943 75.146 64.3558 74.9322 64.5348L68.7359 69.72C68.5559 69.8707 68.3352 69.9448 68.1161 69.9448Z" fill="white"/>
<path d="M59.8065 73.8339C59.7408 73.8339 59.6745 73.8271 59.6077 73.8134C59.0905 73.7063 58.7592 73.2069 58.8682 72.6986L62.7299 54.6797C62.8389 54.1713 63.3466 53.8458 63.8643 53.9529C64.3816 54.06 64.7129 54.5589 64.6039 55.0677L60.7421 73.0866C60.647 73.5298 60.2495 73.8339 59.8065 73.8339Z" fill="white"/>
<path d="M84.5708 83.6507H39.4292C35.8844 83.6507 33 80.8166 33 77.3323V39.6792C33 36.1955 35.8844 33.3608 39.4292 33.3608H84.5708C88.1156 33.3608 91 36.1955 91 39.6792V77.3323C91 80.8166 88.1156 83.6507 84.5708 83.6507ZM39.4292 35.2429C36.9403 35.2429 34.9151 37.2332 34.9151 39.6792V77.3323C34.9151 79.7784 36.9403 81.7686 39.4292 81.7686H84.5708C87.0597 81.7686 89.0849 79.7784 89.0849 77.3323V39.6792C89.0849 37.2332 87.0597 35.2429 84.5708 35.2429H39.4292Z" fill="white"/>
<path d="M90.0425 48.4296H33.9575C33.4285 48.4296 33 48.0084 33 47.4885C33 46.9692 33.4285 46.5475 33.9575 46.5475H90.0425C90.5715 46.5475 91 46.9692 91 47.4885C91 48.0084 90.5715 48.4296 90.0425 48.4296Z" fill="white"/>
<path d="M49.3606 43.9265C47.6902 43.9265 46.3303 42.5901 46.3303 40.9485C46.3303 39.3064 47.6902 37.9705 49.3606 37.9705C51.0315 37.9705 52.3909 39.3064 52.3909 40.9485C52.3909 42.5901 51.0315 43.9265 49.3606 43.9265ZM49.3606 39.8525C48.7461 39.8525 48.2454 40.3441 48.2454 40.9485C48.2454 41.5529 48.7461 42.0444 49.3606 42.0444C49.9756 42.0444 50.4758 41.5529 50.4758 40.9485C50.4758 40.3441 49.9756 39.8525 49.3606 39.8525Z" fill="white"/>
<path d="M40.0502 43.8977C38.3793 43.8977 37.0199 42.5618 37.0199 40.9197C37.0199 39.2776 38.3793 37.9417 40.0502 37.9417C41.7211 37.9417 43.0804 39.2776 43.0804 40.9197C43.0804 42.5618 41.7211 43.8977 40.0502 43.8977ZM40.0502 39.8237C39.4357 39.8237 38.935 40.3158 38.935 40.9197C38.935 41.5241 39.4357 42.0156 40.0502 42.0156C40.6652 42.0156 41.1653 41.5241 41.1653 40.9197C41.1653 40.3158 40.6652 39.8237 40.0502 39.8237Z" fill="white"/>
<path d="M58.671 43.9549C57.0007 43.9549 55.6413 42.619 55.6413 40.9769C55.6413 39.3353 57.0007 37.9994 58.671 37.9994C60.3419 37.9994 61.7013 39.3353 61.7013 40.9769C61.7013 42.619 60.3419 43.9549 58.671 43.9549ZM58.671 39.8809C58.0565 39.8809 57.5564 40.3725 57.5564 40.9769C57.5564 41.5813 58.0565 42.0728 58.671 42.0728C59.2861 42.0728 59.7862 41.5813 59.7862 40.9769C59.7862 40.3725 59.2861 39.8809 58.671 39.8809Z" fill="white"/>
<defs>
<linearGradient id="paint0_linear" x1="203.74" y1="190.93" x2="-40.5" y2="-38" gradientUnits="userSpaceOnUse">
<stop stop-color="white"/>
<stop offset="1" stop-color="white" stop-opacity="0"/>
</linearGradient>
</defs>
</svg>
