<svg width="122" height="122" viewBox="0 0 122 122" fill="none" xmlns="http://www.w3.org/2000/svg">
<circle cx="61" cy="61" r="61" fill="#F7931A"/>
<circle cx="61" cy="61" r="61" fill="url(#paint0_linear)"/>
<g clip-path="url(#clip0)">
<path d="M89.4602 23.3535H65.2782C64.5051 23.3535 63.8784 23.9802 63.8784 24.7533V36.1536C63.8784 36.7369 64.2401 37.2591 64.7863 37.464C65.3321 37.6688 65.9483 37.5139 66.3322 37.0745C67.1354 36.1553 68.2971 35.6705 69.5166 35.742C71.4673 35.8578 73.0401 37.4141 73.1751 39.3618C73.2514 40.4619 72.882 41.5087 72.135 42.3093C71.3871 43.111 70.3718 43.5523 69.2762 43.5523C68.1491 43.5523 67.0761 43.0641 66.3322 42.2129C65.9484 41.7735 65.3322 41.6183 64.7863 41.8233C64.2403 42.0283 63.8784 42.5505 63.8784 43.1338V43.501C62.8796 42.7829 61.6772 42.3312 60.3761 42.2538C59.3274 42.1915 58.3045 42.37 57.3715 42.7617V34.0598C57.3715 33.2867 56.7448 32.66 55.9717 32.66H31.7897C27.9305 32.66 24.7908 35.7997 24.7908 39.6589V88.0229C24.7908 91.8821 27.9305 95.0217 31.7897 95.0217H80.1537C84.0129 95.0217 87.1525 91.8821 87.1525 88.0229V85.0305C87.1525 84.2574 86.5259 83.6307 85.7528 83.6307C84.9797 83.6307 84.353 84.2574 84.353 85.0305V88.0229C84.353 90.3384 82.4692 92.2222 80.1537 92.2222H57.3715V82.2217C57.3715 81.6384 57.0098 81.1161 56.4636 80.9112C55.9175 80.706 55.3013 80.8614 54.9177 81.3008C54.1738 82.1521 53.1008 82.6404 51.9737 82.6404C50.8781 82.6404 49.8628 82.1989 49.1149 81.3974C48.3679 80.5967 47.9983 79.5498 48.0746 78.4497C48.2097 76.5018 49.7825 74.9457 51.7332 74.8299C52.9524 74.7577 54.1143 75.243 54.9177 76.1624C55.3015 76.6016 55.9174 76.7567 56.4636 76.5519C57.0096 76.347 57.3715 75.8247 57.3715 75.2414V65.2409H64.6783C64.3359 66.0546 64.1538 66.9368 64.1538 67.8392C64.1538 69.6922 64.9311 71.4803 66.2865 72.7448C67.6609 74.0273 69.4546 74.6615 71.3378 74.5311C74.6852 74.2988 77.3595 71.5967 77.5584 68.2455C77.6205 67.1968 77.4423 66.174 77.0504 65.2409H84.3529V72.4328C84.3529 73.2059 84.9795 73.8326 85.7526 73.8326C86.5257 73.8326 87.1524 73.2059 87.1524 72.4328V63.8412C87.1524 63.0681 86.5257 62.4414 85.7526 62.4414H85.6178C86.4276 61.3097 86.8771 59.9403 86.8771 58.5327C86.8771 57.6302 86.695 56.7481 86.3526 55.9344H95.0593C95.8324 55.9344 96.4591 55.3077 96.4591 54.5347V30.3524C96.4591 26.4932 93.3194 23.3535 89.4602 23.3535ZM27.5904 39.6589C27.5904 37.3434 29.4742 35.4596 31.7897 35.4596H54.5719V45.4601C54.5719 46.0434 54.9336 46.5656 55.4798 46.7705C56.0254 46.9753 56.6418 46.8202 57.0257 46.381C57.8288 45.4619 58.99 44.9763 60.2101 45.0486C62.1606 45.1645 63.7336 46.7206 63.8686 48.6685C63.9449 49.7686 63.5755 50.8153 62.8283 51.6161C62.0804 52.4176 61.0652 52.8591 59.9696 52.8591C58.8425 52.8591 57.7694 52.3709 57.0257 51.5197C56.6418 51.0802 56.0256 50.9251 55.4798 51.1301C54.9336 51.3351 54.5719 51.8573 54.5719 52.4406V62.4411H47.265C47.6074 61.6274 47.7895 60.7453 47.7895 59.8429C47.7895 57.9898 47.0122 56.2019 45.6568 54.9372C44.2823 53.6549 42.4884 53.0209 40.6057 53.151C37.2582 53.3832 34.5839 56.0853 34.385 59.4364C34.3227 60.4851 34.501 61.508 34.8928 62.441H27.5904V39.6589ZM51.5673 72.0351C48.2163 72.234 45.514 74.9084 45.2819 78.2559C45.1513 80.1387 45.7857 81.9326 47.068 83.3069C48.3327 84.6623 50.1208 85.4396 51.9737 85.4396C52.8761 85.4396 53.7581 85.2576 54.5719 84.9151V92.2222H31.7897C29.4742 92.2222 27.5904 90.3384 27.5904 88.0229V65.2407H37.5909C38.1742 65.2407 38.6964 64.8789 38.9014 64.3328C39.1063 63.7866 38.951 63.1705 38.5118 62.7869C37.5926 61.9838 37.107 60.8231 37.1794 59.6025C37.2951 57.6518 38.8514 56.079 40.7992 55.9439C41.8992 55.8678 42.946 56.2371 43.7468 56.9843C44.5483 57.7321 44.9898 58.7474 44.9898 59.843C44.9898 60.9701 44.5016 62.0432 43.6504 62.7869C43.2111 63.1707 43.0559 63.7867 43.2608 64.3328C43.4657 64.8789 43.988 65.2407 44.5713 65.2407H54.5718V72.5431C53.6388 72.151 52.6159 71.9724 51.5673 72.0351ZM73.4314 64.895C74.3505 65.6981 74.8363 66.8588 74.7639 68.0794C74.6481 70.03 73.0919 71.6027 71.1441 71.738C70.0441 71.8137 68.9971 71.4449 68.1964 70.6977C67.3948 69.9498 66.9534 68.9345 66.9534 67.8389C66.9534 66.7118 67.4417 65.6387 68.2929 64.8949C68.7321 64.5111 68.8874 63.8951 68.6824 63.349C68.4775 62.803 67.9553 62.4411 67.372 62.4411H57.3716V55.1343C58.1853 55.4767 59.0674 55.6588 59.9699 55.6588C61.3775 55.6588 62.747 55.2093 63.8786 54.3996V54.5345C63.8786 55.3076 64.5052 55.9343 65.2783 55.9343H73.9806C73.5886 56.8674 73.4104 57.8902 73.4726 58.9389C73.5499 60.2401 74.0016 61.4424 74.7196 62.4413H74.3525C73.7692 62.4413 73.247 62.803 73.042 63.3491C72.837 63.8952 72.9922 64.5112 73.4314 64.895ZM93.6595 53.1346H83.6591C83.0759 53.1346 82.5536 53.4963 82.3487 54.0425C82.1437 54.5885 82.299 55.2046 82.7382 55.5884C83.5896 56.3321 84.0777 57.4052 84.0777 58.5323C84.0777 59.6279 83.6362 60.6431 82.8347 61.391C82.034 62.1381 80.9871 62.5076 79.887 62.4313C77.9391 62.2962 76.383 60.7233 76.2672 58.7727C76.1947 57.5521 76.6804 56.3914 77.5995 55.5883C78.0388 55.2044 78.194 54.5884 77.9891 54.0424C77.7842 53.4963 77.2619 53.1345 76.6786 53.1345H66.6783V45.8275C67.4919 46.1699 68.3741 46.352 69.2765 46.352C71.1295 46.352 72.9176 45.5747 74.1821 44.2193C75.4646 42.8449 76.0988 41.0511 75.9682 39.1683C75.736 35.8207 73.0339 33.1464 69.6829 32.9475C68.6337 32.8851 67.6112 33.0636 66.6783 33.4555V26.1531H89.4602C91.7757 26.1531 93.6595 28.0369 93.6595 30.3524V53.1346Z" fill="white"/>
<path d="M85.7522 77.3314C85.3841 77.3314 85.023 77.4812 84.7626 77.7416C84.5023 78.0019 84.3525 78.3631 84.3525 78.7312C84.3525 79.0993 84.5023 79.4605 84.7626 79.7208C85.023 79.9812 85.3841 80.131 85.7522 80.131C86.1204 80.131 86.4815 79.9812 86.7419 79.7208C87.0036 79.4605 87.152 79.0993 87.152 78.7312C87.152 78.3631 87.0036 78.0019 86.7419 77.7416C86.4815 77.4812 86.1218 77.3314 85.7522 77.3314Z" fill="white"/>
</g>
<defs>
<linearGradient id="paint0_linear" x1="155" y1="176" x2="-14.03" y2="-3.11446e-06" gradientUnits="userSpaceOnUse">
<stop stop-color="white"/>
<stop offset="1" stop-color="white" stop-opacity="0"/>
</linearGradient>
<clipPath id="clip0">
<rect width="71.6682" height="71.6682" fill="white" transform="translate(24.7908 23.3535)"/>
</clipPath>
</defs>
</svg>
