<svg width="122" height="122" viewBox="0 0 122 122" fill="none" xmlns="http://www.w3.org/2000/svg">
<circle cx="61" cy="61" r="61" fill="#B388EB"/>
<circle cx="61" cy="61" r="61" fill="url(#paint0_linear)"/>
<g clip-path="url(#clip0)">
<path d="M28.1976 70.1312C30.758 80.7567 38.138 102.432 50.6088 100.486C63.1167 98.5348 58.2321 78.95 69.6822 76.2657C74.7226 75.084 78.1392 85.6769 83.1908 85.3474C89.697 84.9229 93.0086 77.1026 94.8267 70.5282C98.6817 56.5882 92.9086 32.9502 79.3967 28.8563C67.6056 25.2838 66.2263 42.7775 55.9738 37.6963C50.2113 34.8403 50.787 26.3116 43.7687 24.5907C22.5365 19.3846 24.7907 55.9925 28.1976 70.1312Z" fill="url(#paint1_linear)"/>
<path opacity="0.1" d="M73.8833 102.912H48.1167C45.8514 102.912 44.0152 100.683 44.0152 97.9319V34.7333C44.0152 31.9826 45.8514 29.7528 48.1167 29.7528H73.8833C76.1486 29.7528 77.9848 31.9826 77.9848 34.7333V97.9318C77.9848 100.682 76.1486 102.912 73.8833 102.912Z" fill="#2626BC"/>
<path d="M73.8833 98.9281H48.1167C45.8514 98.9281 44.0152 96.6983 44.0152 93.9476V30.7489C44.0152 27.9982 45.8514 25.7684 48.1167 25.7684H73.8833C76.1486 25.7684 77.9848 27.9982 77.9848 30.7489V93.9474C77.9848 96.6981 76.1486 98.9281 73.8833 98.9281Z" fill="#6583FE"/>
<path d="M44.0154 32.8921H77.9846V91.8044H44.0154V32.8921Z" fill="#2D58E0"/>
<path d="M58.7065 54.5211H51.7417C50.9866 54.5211 50.3745 53.7779 50.3745 52.8609V45.0564C50.3745 44.1395 50.9866 43.3962 51.7417 43.3962H58.7065C59.4616 43.3962 60.0737 44.1395 60.0737 45.0564V52.8609C60.0737 53.7779 59.4616 54.5211 58.7065 54.5211Z" fill="#1F50C9"/>
<path d="M70.3166 54.4744H63.3517C62.5966 54.4744 61.9845 53.7311 61.9845 52.8142V45.0096C61.9845 44.0927 62.5966 43.3495 63.3517 43.3495H70.3166C71.0717 43.3495 71.6837 44.0927 71.6837 45.0096V52.8142C71.6837 53.7311 71.0717 54.4744 70.3166 54.4744Z" fill="#1F50C9"/>
<path d="M77.946 43.3495V54.4742H74.9997C74.245 54.4742 73.6325 53.7305 73.6325 52.814V45.0096C73.6325 44.0932 74.245 43.3495 74.9997 43.3495H77.946Z" fill="#1F50C9"/>
<path d="M68.3609 36.4497H53.6391C53.2616 36.4497 52.9555 36.8214 52.9555 37.2798C52.9555 37.7382 53.2616 38.1099 53.6391 38.1099H68.3609C68.7384 38.1099 69.0445 37.7382 69.0445 37.2798C69.0445 36.8214 68.7385 36.4497 68.3609 36.4497Z" fill="white"/>
<path d="M58.7065 52.7758H51.7417C50.9866 52.7758 50.3745 52.0325 50.3745 51.1156V43.311C50.3745 42.3941 50.9866 41.6509 51.7417 41.6509H58.7065C59.4616 41.6509 60.0737 42.3941 60.0737 43.311V51.1156C60.0737 52.0325 59.4616 52.7758 58.7065 52.7758Z" fill="#FF7EB8"/>
<path d="M57.2531 49.3069H54.4256C54.0481 49.3069 53.742 49.6786 53.742 50.137C53.742 50.5953 54.0481 50.967 54.4256 50.967H57.2531C57.6306 50.967 57.9367 50.5953 57.9367 50.137C57.9367 49.6786 57.6306 49.3069 57.2531 49.3069Z" fill="white"/>
<path d="M57.2531 46.5958H56.4764C56.0989 46.5958 55.7928 46.9675 55.7928 47.4259C55.7928 47.8843 56.0989 48.256 56.4764 48.256H57.2531C57.6306 48.256 57.9367 47.8843 57.9367 47.4259C57.9367 46.9675 57.6306 46.5958 57.2531 46.5958Z" fill="white"/>
<path d="M70.3166 52.7293H63.3517C62.5966 52.7293 61.9845 51.986 61.9845 51.0691V43.2644C61.9845 42.3475 62.5966 41.6042 63.3517 41.6042H70.3166C71.0717 41.6042 71.6838 42.3475 71.6838 43.2644V51.069C71.6838 51.9859 71.0717 52.7293 70.3166 52.7293Z" fill="#02FFB3"/>
<path d="M68.8631 49.2601H66.0356C65.6582 49.2601 65.3521 49.6318 65.3521 50.0902C65.3521 50.5486 65.6582 50.9203 66.0356 50.9203H68.8631C69.2406 50.9203 69.5467 50.5486 69.5467 50.0902C69.5467 49.6318 69.2406 49.2601 68.8631 49.2601Z" fill="white"/>
<path d="M68.8631 46.549H68.0864C67.7089 46.549 67.4028 46.9207 67.4028 47.379C67.4028 47.8374 67.7089 48.2091 68.0864 48.2091H68.8631C69.2406 48.2091 69.5467 47.8374 69.5467 47.379C69.5467 46.9207 69.2406 46.549 68.8631 46.549Z" fill="white"/>
<path d="M77.946 41.6045V52.7292H74.9997C74.245 52.7292 73.6325 51.9854 73.6325 51.069V43.2646C73.6325 42.3482 74.245 41.6045 74.9997 41.6045H77.946Z" fill="#9FB0FE"/>
<path d="M44.0154 91.8044V61.1346C44.0154 58.8436 45.5453 56.9843 47.4334 56.9843H74.5666C76.4547 56.9843 77.9846 58.8436 77.9846 61.1346V91.8044H44.0154Z" fill="white"/>
<path d="M73.8833 99.758H48.1167C45.4782 99.758 43.3316 97.1514 43.3316 93.9475V30.7491C43.3316 27.5452 45.4782 24.9386 48.1167 24.9386H73.8833C76.5218 24.9386 78.6684 27.5452 78.6684 30.7491V93.9476C78.6684 97.1514 76.5218 99.758 73.8833 99.758ZM48.1167 26.5988C46.232 26.5988 44.6987 28.4606 44.6987 30.7491V93.9476C44.6987 96.2362 46.232 98.098 48.1167 98.098H73.8833C75.7679 98.098 77.3012 96.2362 77.3012 93.9476V30.7491C77.3012 28.4606 75.7679 26.5988 73.8833 26.5988H48.1167Z" fill="#2626BC"/>
<path d="M63.3902 30.3125H58.6097C58.2323 30.3125 57.9261 29.9408 57.9261 29.4824C57.9261 29.0241 58.2323 28.6523 58.6097 28.6523H63.3902C63.7677 28.6523 64.0738 29.0241 64.0738 29.4824C64.0738 29.9408 63.7677 30.3125 63.3902 30.3125Z" fill="#B7C5FF"/>
<path d="M66.5799 30.3126C66.9576 30.3126 67.2637 29.9408 67.2637 29.4821C67.2637 29.0235 66.9576 28.6517 66.5799 28.6517C66.2022 28.6517 65.896 29.0235 65.896 29.4821C65.896 29.9408 66.2022 30.3126 66.5799 30.3126Z" fill="#B7C5FF"/>
<path d="M58.0734 62.3483H55.2459C54.8684 62.3483 54.5623 62.72 54.5623 63.1784C54.5623 63.6367 54.8684 64.0084 55.2459 64.0084H58.0734C58.4508 64.0084 58.757 63.6367 58.757 63.1784C58.757 62.72 58.4508 62.3483 58.0734 62.3483Z" fill="#00D890"/>
<path d="M72.0187 65.714H55.2459C54.8684 65.714 54.5623 66.0857 54.5623 66.5441C54.5623 67.0024 54.8684 67.3741 55.2459 67.3741H72.0187C72.3962 67.3741 72.7023 67.0024 72.7023 66.5441C72.7023 66.0857 72.3962 65.714 72.0187 65.714Z" fill="#9FB0FE"/>
<path d="M51.2828 67.3749H48.5113C48.1338 67.3749 47.8277 67.0032 47.8277 66.5448V63.1793C47.8277 62.721 48.1338 62.3492 48.5113 62.3492H51.2828C51.6603 62.3492 51.9664 62.721 51.9664 63.1793V66.5448C51.9664 67.0032 51.6603 67.3749 51.2828 67.3749Z" fill="#02FFB3"/>
<path d="M58.0734 72.632H55.2459C54.8684 72.632 54.5623 73.0037 54.5623 73.462C54.5623 73.9204 54.8684 74.2921 55.2459 74.2921H58.0734C58.4508 74.2921 58.757 73.9204 58.757 73.462C58.757 73.0037 58.4508 72.632 58.0734 72.632Z" fill="#FF5BA8"/>
<path d="M72.0187 75.9974H55.2459C54.8684 75.9974 54.5623 76.3691 54.5623 76.8275C54.5623 77.2859 54.8684 77.6576 55.2459 77.6576H72.0187C72.3962 77.6576 72.7023 77.2859 72.7023 76.8275C72.7023 76.3691 72.3962 75.9974 72.0187 75.9974Z" fill="#9FB0FE"/>
<path d="M51.2828 77.6576H48.5113C48.1338 77.6576 47.8277 77.2859 47.8277 76.8275V73.462C47.8277 73.0037 48.1338 72.632 48.5113 72.632H51.2828C51.6603 72.632 51.9664 73.0037 51.9664 73.462V76.8275C51.9664 77.2859 51.6603 77.6576 51.2828 77.6576Z" fill="#FF7EB8"/>
<path d="M58.0734 82.9154H55.2459C54.8684 82.9154 54.5623 83.2871 54.5623 83.7455C54.5623 84.2039 54.8684 84.5756 55.2459 84.5756H58.0734C58.4508 84.5756 58.757 84.2039 58.757 83.7455C58.757 83.2871 58.4508 82.9154 58.0734 82.9154Z" fill="#6583FE"/>
<path d="M72.0187 86.2809H55.2459C54.8684 86.2809 54.5623 86.6526 54.5623 87.111C54.5623 87.5693 54.8684 87.941 55.2459 87.941H72.0187C72.3962 87.941 72.7023 87.5693 72.7023 87.111C72.7023 86.6526 72.3962 86.2809 72.0187 86.2809Z" fill="#9FB0FE"/>
<path d="M51.2828 87.941H48.5113C48.1338 87.941 47.8277 87.5693 47.8277 87.111V83.7455C47.8277 83.2871 48.1338 82.9154 48.5113 82.9154H51.2828C51.6603 82.9154 51.9664 83.2871 51.9664 83.7455V87.111C51.9664 87.5693 51.6603 87.941 51.2828 87.941Z" fill="#9FB0FE"/>
<path d="M83.1944 86.948C82.117 86.948 81.2405 85.8837 81.2405 84.5753C81.2405 83.267 82.117 82.2026 83.1944 82.2026C84.2717 82.2026 85.1482 83.267 85.1482 84.5753C85.1482 85.8837 84.2717 86.948 83.1944 86.948ZM83.1944 83.863C82.8709 83.863 82.6077 84.1825 82.6077 84.5755C82.6077 84.9685 82.8709 85.288 83.1944 85.288C83.5179 85.288 83.781 84.9685 83.781 84.5755C83.781 84.1825 83.5179 83.863 83.1944 83.863Z" fill="#6583FE"/>
<path d="M37.3366 51.6149C36.9591 51.6149 36.653 51.2432 36.653 50.7848C36.653 50.2354 36.2851 49.7887 35.8327 49.7887C35.4552 49.7887 35.1491 49.417 35.1491 48.9586C35.1491 48.5002 35.4552 48.1285 35.8327 48.1285C36.2851 48.1285 36.653 47.6818 36.653 47.1324C36.653 46.6741 36.9591 46.3024 37.3366 46.3024C37.7141 46.3024 38.0202 46.6741 38.0202 47.1324C38.0202 47.6818 38.3881 48.1285 38.8405 48.1285C39.218 48.1285 39.5241 48.5002 39.5241 48.9586C39.5241 49.417 39.218 49.7887 38.8405 49.7887C38.3881 49.7887 38.0202 50.2354 38.0202 50.7848C38.0202 51.2432 37.7141 51.6149 37.3366 51.6149Z" fill="#01ECA5"/>
<path d="M85.1516 94.4608C84.774 94.4608 84.468 94.0891 84.468 93.6307C84.468 93.0814 84.1001 92.6346 83.6477 92.6346C83.2701 92.6346 82.9641 92.2629 82.9641 91.8046C82.9641 91.3462 83.2701 90.9745 83.6477 90.9745C84.1001 90.9745 84.468 90.5277 84.468 89.9784C84.468 89.52 84.774 89.1483 85.1516 89.1483C85.5292 89.1483 85.8352 89.52 85.8352 89.9784C85.8352 90.5277 86.2031 90.9745 86.6555 90.9745C87.0331 90.9745 87.3391 91.3462 87.3391 91.8046C87.3391 92.2629 87.0331 92.6346 86.6555 92.6346C86.2031 92.6346 85.8352 93.0814 85.8352 93.6307C85.8352 94.0891 85.5292 94.4608 85.1516 94.4608Z" fill="#01ECA5"/>
<path d="M86.6555 46.0057C86.2779 46.0057 85.9719 45.634 85.9719 45.1757C85.9719 44.6263 85.604 44.1796 85.1516 44.1796C84.774 44.1796 84.468 43.8079 84.468 43.3495C84.468 42.8911 84.774 42.5194 85.1516 42.5194C85.604 42.5194 85.9719 42.0727 85.9719 41.5233C85.9719 41.0649 86.2779 40.6932 86.6555 40.6932C87.0331 40.6932 87.3391 41.0649 87.3391 41.5233C87.3391 42.0727 87.707 42.5194 88.1594 42.5194C88.537 42.5194 88.843 42.8911 88.843 43.3495C88.843 43.8079 88.537 44.1796 88.1594 44.1796C87.707 44.1796 87.3391 44.6263 87.3391 45.1757C87.3391 45.634 87.0331 46.0057 86.6555 46.0057Z" fill="#FF5BA8"/>
<path d="M35.9295 59.7989C35.552 59.7989 35.2459 59.4272 35.2459 58.9689C35.2459 58.4195 34.878 57.9728 34.4256 57.9728C34.0481 57.9728 33.742 57.6011 33.742 57.1427C33.742 56.6843 34.0481 56.3126 34.4256 56.3126C34.878 56.3126 35.2459 55.8659 35.2459 55.3165C35.2459 54.8582 35.552 54.4865 35.9295 54.4865C36.307 54.4865 36.6131 54.8582 36.6131 55.3165C36.6131 55.8659 36.981 56.3126 37.4334 56.3126C37.8109 56.3126 38.117 56.6843 38.117 57.1427C38.117 57.6011 37.8109 57.9728 37.4334 57.9728C36.981 57.9728 36.6131 58.4195 36.6131 58.9689C36.6131 59.4272 36.3071 59.7989 35.9295 59.7989Z" fill="#FF5BA8"/>
</g>
<defs>
<linearGradient id="paint0_linear" x1="203.74" y1="190.93" x2="-14.03" y2="1.75916e-07" gradientUnits="userSpaceOnUse">
<stop stop-color="white"/>
<stop offset="1" stop-color="white" stop-opacity="0"/>
</linearGradient>
<linearGradient id="paint1_linear" x1="29.2568" y1="76.8363" x2="94.0382" y2="46.035" gradientUnits="userSpaceOnUse">
<stop stop-color="#DCFDEE" stop-opacity="0"/>
<stop offset="0.6288" stop-color="#D2F3E4"/>
</linearGradient>
<clipPath id="clip0">
<rect width="70" height="85" fill="white" transform="translate(26 21)"/>
</clipPath>
</defs>
</svg>
